{"glyphs":{"0":{"ha":699,"x_min":46,"x_max":654,"o":"m 480 87 l 480 130 l 220 130 l 220 87 l 480 87 m 480 174 l 480 651 q 467 681 480 669 q 437 694 454 694 l 176 694 l 176 174 l 480 174 m 567 174 l 567 694 l 524 694 l 567 673 l 524 651 l 567 629 l 524 608 l 567 586 l 524 564 l 567 543 l 524 521 l 567 499 l 524 477 l 567 456 l 524 434 l 567 412 l 524 391 l 567 369 l 524 347 l 567 326 l 524 304 l 567 282 l 524 260 l 567 239 l 524 217 l 567 195 l 524 174 l 567 174 m 545 742 q 557 746 552 742 q 562 760 562 751 q 557 772 562 766 q 545 776 552 776 q 532 772 537 776 q 528 760 528 766 q 532 746 528 751 q 545 742 537 742 m 241 738 l 220 781 l 220 738 l 241 738 m 285 738 l 263 781 l 241 781 l 263 738 l 285 738 m 328 738 l 307 781 l 285 781 l 307 738 l 328 738 m 372 738 l 350 781 l 328 781 l 350 738 l 372 738 m 415 738 l 393 781 l 372 781 l 393 738 l 415 738 m 458 738 l 437 781 l 415 781 l 437 738 l 458 738 m 480 738 l 480 781 l 458 781 l 480 738 m 176 825 l 176 846 q 160 840 167 846 q 155 825 155 833 l 176 825 m 133 0 l 133 43 l 111 43 q 95 49 102 43 q 90 65 90 56 l 90 130 l 46 130 l 46 738 l 90 738 l 90 825 l 133 825 q 145 854 133 842 q 176 868 157 868 l 524 868 l 524 825 l 567 825 l 610 781 l 610 738 l 654 738 l 654 130 l 610 130 l 610 109 l 589 87 l 567 87 l 567 43 l 524 43 l 524 0 l 133 0 z "},"1":{"ha":484,"x_min":22,"x_max":456,"o":"m 239 87 l 239 130 l 109 130 l 109 87 l 239 87 m 412 87 l 412 130 l 326 130 l 326 87 l 412 87 m 174 608 l 152 651 l 152 608 l 174 608 m 217 608 l 195 651 l 174 651 l 195 608 l 217 608 m 239 608 l 239 651 l 217 651 l 239 608 m 282 825 l 282 846 q 266 840 273 846 q 260 825 260 833 l 282 825 m 65 0 l 65 174 l 195 174 l 195 564 l 65 564 l 65 608 l 22 608 l 22 651 l 65 651 l 65 738 l 195 738 l 195 825 l 239 825 q 251 854 239 842 q 282 868 263 868 l 326 868 l 326 174 l 456 174 l 456 0 l 65 0 z "},"2":{"ha":699,"x_min":45,"x_max":652,"o":"m 175 87 l 175 130 l 88 130 l 88 87 l 175 87 m 609 87 l 609 130 l 262 130 l 262 87 l 609 87 m 110 612 q 122 616 117 612 q 126 629 126 621 q 122 642 126 636 q 110 646 117 646 q 96 642 102 646 q 92 629 92 636 q 96 616 92 621 q 110 612 102 612 m 566 564 l 566 694 l 522 694 l 566 673 l 522 651 l 566 629 l 522 608 l 566 586 l 522 564 l 566 564 m 240 738 l 218 781 l 218 738 l 240 738 m 283 738 l 262 781 l 240 781 l 262 738 l 283 738 m 327 738 l 305 781 l 283 781 l 305 738 l 327 738 m 370 738 l 349 781 l 327 781 l 349 738 l 370 738 m 414 738 l 392 781 l 370 781 l 392 738 l 414 738 m 457 738 l 435 781 l 414 781 l 435 738 l 457 738 m 479 738 l 479 781 l 457 781 l 479 738 m 566 738 l 566 781 l 522 781 l 522 738 l 566 738 m 175 825 l 175 846 q 159 840 165 846 q 153 825 153 833 l 175 825 m 45 0 l 45 174 l 132 174 l 132 260 l 218 260 l 218 304 l 262 304 l 262 391 l 349 391 l 349 434 l 392 434 l 392 521 l 479 521 l 479 651 q 465 681 479 669 q 435 694 453 694 l 175 694 l 175 564 l 45 564 l 45 738 l 88 738 l 88 825 l 132 825 q 144 854 132 842 q 175 868 156 868 l 522 868 l 522 825 l 566 825 l 609 781 l 609 738 l 652 738 l 652 477 l 609 477 l 609 434 l 522 434 l 522 347 l 479 347 l 479 304 l 435 304 l 435 217 l 349 217 l 349 174 l 652 174 l 652 0 l 45 0 z "},"3":{"ha":693,"x_min":41,"x_max":648,"o":"m 540 91 q 552 95 547 91 q 556 109 556 100 q 552 121 556 115 q 540 125 547 125 q 526 121 532 125 q 522 109 522 115 q 526 95 522 100 q 540 91 532 91 m 475 87 l 475 130 l 214 130 l 214 87 l 475 87 m 540 87 q 524 92 530 87 q 518 109 518 99 q 524 123 518 117 q 540 130 530 130 l 518 130 l 518 87 l 540 87 m 562 87 l 562 130 l 540 130 q 555 123 548 130 q 562 109 562 117 q 555 92 562 99 q 540 87 548 87 l 562 87 m 562 174 l 562 347 l 518 347 l 562 326 l 518 304 l 562 282 l 518 260 l 562 239 l 518 217 l 562 195 l 518 174 l 562 174 m 106 612 q 118 616 113 612 q 122 629 122 621 q 118 642 122 636 q 106 646 113 646 q 92 642 98 646 q 88 629 88 636 q 92 616 88 621 q 106 612 98 612 m 562 564 l 562 694 l 518 694 l 518 564 l 562 564 m 236 738 l 214 781 l 214 738 l 236 738 m 279 738 l 258 781 l 236 781 l 258 738 l 279 738 m 323 738 l 301 781 l 279 781 l 301 738 l 323 738 m 366 738 l 345 781 l 323 781 l 345 738 l 366 738 m 410 738 l 388 781 l 366 781 l 388 738 l 410 738 m 453 738 l 431 781 l 410 781 l 431 738 l 453 738 m 475 738 l 475 781 l 453 781 l 475 738 m 562 738 l 562 781 l 518 781 l 518 738 l 562 738 m 171 825 l 171 846 q 155 840 161 846 q 149 825 149 833 l 171 825 m 127 0 l 127 43 l 106 43 q 90 49 96 43 q 84 65 84 56 l 84 130 l 41 130 l 41 260 l 171 260 l 171 174 l 475 174 l 475 347 l 258 347 l 258 521 l 475 521 l 475 651 q 461 681 475 669 q 431 694 449 694 l 171 694 l 171 564 l 41 564 l 41 738 l 84 738 l 84 825 l 127 825 q 140 854 127 842 q 171 868 152 868 l 518 868 l 518 825 l 562 825 l 605 781 l 605 738 l 648 738 l 648 477 l 605 477 l 605 391 l 648 391 l 648 130 l 605 130 l 605 65 l 583 43 l 518 43 l 518 0 l 127 0 z "},"4":{"ha":643,"x_min":11,"x_max":618,"o":"m 358 391 l 358 564 l 271 564 l 271 477 l 184 477 l 184 434 l 141 434 l 141 391 l 358 391 m 336 608 l 315 651 l 315 608 l 336 608 m 380 608 l 358 651 l 336 651 l 358 608 l 380 608 m 401 608 l 401 651 l 380 651 l 401 608 m 401 825 l 401 846 q 385 840 392 846 q 380 825 380 833 l 401 825 m 358 0 l 358 217 l 11 217 l 11 521 l 54 521 l 54 564 l 98 564 l 141 608 l 184 608 l 184 651 l 228 651 l 228 738 l 358 738 l 358 825 q 370 854 358 842 q 401 868 382 868 l 488 868 l 488 412 l 510 391 l 618 391 l 618 217 l 488 217 l 488 0 l 358 0 z "},"5":{"ha":739,"x_min":42,"x_max":693,"o":"m 519 87 l 519 130 l 216 130 l 216 87 l 519 87 m 194 738 l 172 781 l 172 738 l 194 738 m 237 738 l 216 781 l 194 781 l 216 738 l 237 738 m 281 738 l 259 781 l 237 781 l 259 738 l 281 738 m 324 738 l 302 781 l 281 781 l 302 738 l 324 738 m 368 738 l 346 781 l 324 781 l 346 738 l 368 738 m 411 738 l 389 781 l 368 781 l 389 738 l 411 738 m 454 738 l 433 781 l 411 781 l 433 738 l 454 738 m 498 738 l 476 781 l 454 781 l 476 738 l 498 738 m 541 738 l 519 781 l 498 781 l 519 738 l 541 738 m 585 738 l 563 781 l 541 781 l 563 738 l 585 738 m 628 738 l 606 781 l 585 781 l 606 738 l 628 738 m 650 738 l 650 781 l 628 781 l 650 738 m 85 825 l 85 846 q 71 840 77 846 q 64 825 64 833 l 85 825 m 172 0 l 172 43 l 151 43 q 134 49 141 43 q 129 65 129 56 l 129 130 l 42 130 l 42 217 l 85 217 l 85 260 l 216 260 l 216 174 l 519 174 l 519 477 l 85 477 l 85 521 l 42 521 l 42 825 q 56 854 42 842 q 85 868 68 868 l 693 868 l 693 694 l 216 694 l 216 608 l 563 608 l 563 586 l 585 564 l 606 564 l 606 521 l 693 521 l 693 130 l 606 130 l 606 65 l 585 43 l 563 43 l 563 0 l 172 0 z "},"6":{"ha":689,"x_min":46,"x_max":654,"o":"m 480 87 l 480 130 l 220 130 l 220 87 l 480 87 m 567 174 l 567 434 l 524 434 l 567 412 l 524 391 l 567 369 l 524 347 l 567 326 l 524 304 l 567 282 l 524 260 l 567 239 l 524 217 l 567 195 l 524 174 l 567 174 m 480 174 l 480 477 l 176 477 l 176 174 l 480 174 m 241 738 l 220 781 l 220 738 l 241 738 m 285 738 l 263 781 l 241 781 l 263 738 l 285 738 m 328 738 l 307 781 l 285 781 l 307 738 l 328 738 m 372 738 l 350 781 l 328 781 l 350 738 l 372 738 m 415 738 l 393 781 l 372 781 l 393 738 l 415 738 m 458 738 l 437 781 l 415 781 l 437 738 l 458 738 m 480 738 l 480 781 l 458 781 l 480 738 m 176 825 l 176 846 q 160 840 167 846 q 155 825 155 833 l 176 825 m 133 0 l 133 43 l 111 43 q 95 49 102 43 q 90 65 90 56 l 90 130 l 46 130 l 46 738 l 90 738 l 90 825 l 133 825 q 145 854 133 842 q 176 868 157 868 l 524 868 l 524 694 l 176 694 l 176 608 l 524 608 l 524 564 l 610 564 l 610 543 l 632 521 l 654 521 l 654 130 l 610 130 l 610 109 l 589 87 l 567 87 l 567 43 l 524 43 l 524 0 l 133 0 z "},"7":{"ha":736,"x_min":20,"x_max":715,"o":"m 368 43 l 368 304 l 324 304 l 368 282 l 324 260 l 368 239 l 324 217 l 368 195 l 324 174 l 368 152 l 324 130 l 368 109 l 324 87 l 368 65 l 324 43 l 368 43 m 129 738 l 107 781 l 107 738 l 129 738 m 172 738 l 151 781 l 129 781 l 151 738 l 172 738 m 216 738 l 194 781 l 172 781 l 194 738 l 216 738 m 259 738 l 237 781 l 216 781 l 237 738 l 259 738 m 302 738 l 281 781 l 259 781 l 281 738 l 302 738 m 346 738 l 324 781 l 302 781 l 324 738 l 346 738 m 389 738 l 368 781 l 346 781 l 368 738 l 389 738 m 433 738 l 411 781 l 389 781 l 411 738 l 433 738 m 476 738 l 454 781 l 433 781 l 454 738 l 476 738 m 519 738 l 498 781 l 476 781 l 498 738 l 519 738 m 541 738 l 541 781 l 519 781 l 541 738 m 64 825 l 64 846 q 49 840 56 846 q 42 825 42 833 l 64 825 m 281 0 l 281 391 l 368 391 l 368 434 l 411 434 l 411 521 l 498 521 l 498 651 q 484 681 498 669 q 454 694 472 694 l 64 694 l 64 781 l 20 781 l 20 825 q 34 854 20 842 q 64 868 46 868 l 671 868 l 671 586 l 693 564 l 715 564 l 715 521 l 671 521 l 671 477 l 585 477 l 585 434 l 541 434 l 541 347 l 454 347 l 454 0 l 281 0 z "},"8":{"ha":697,"x_min":45,"x_max":652,"o":"m 544 91 q 556 95 551 91 q 560 109 560 100 q 556 121 560 115 q 544 125 551 125 q 530 121 536 125 q 526 109 526 115 q 530 95 526 100 q 544 91 536 91 m 479 87 l 479 130 l 218 130 l 218 87 l 479 87 m 544 87 q 528 92 534 87 q 522 109 522 99 q 528 123 522 117 q 544 130 534 130 l 522 130 l 522 87 l 544 87 m 566 87 l 566 130 l 544 130 q 559 123 552 130 q 566 109 566 117 q 559 92 566 99 q 544 87 552 87 l 566 87 m 566 174 l 566 304 l 522 304 l 566 282 l 522 260 l 566 239 l 522 217 l 566 195 l 522 174 l 566 174 m 479 174 l 479 347 l 218 347 l 218 304 l 175 304 l 175 174 l 479 174 m 479 521 l 479 651 q 465 681 479 669 q 435 694 453 694 l 175 694 l 175 564 l 218 564 l 218 521 l 479 521 m 566 564 l 566 694 l 522 694 l 522 564 l 566 564 m 544 742 q 556 746 551 742 q 560 760 560 751 q 556 772 560 766 q 544 776 551 776 q 530 772 536 776 q 526 760 526 766 q 530 746 526 751 q 544 742 536 742 m 240 738 l 218 781 l 218 738 l 240 738 m 283 738 l 262 781 l 240 781 l 262 738 l 283 738 m 327 738 l 305 781 l 283 781 l 305 738 l 327 738 m 370 738 l 349 781 l 327 781 l 349 738 l 370 738 m 414 738 l 392 781 l 370 781 l 392 738 l 414 738 m 457 738 l 435 781 l 414 781 l 435 738 l 457 738 m 479 738 l 479 781 l 457 781 l 479 738 m 175 825 l 175 846 q 159 840 165 846 q 153 825 153 833 l 175 825 m 132 0 l 132 43 l 110 43 q 94 49 100 43 q 88 65 88 56 l 88 130 l 45 130 l 45 391 l 88 391 l 88 477 l 45 477 l 45 738 l 88 738 l 88 825 l 132 825 q 144 854 132 842 q 175 868 156 868 l 522 868 l 522 825 l 566 825 l 609 781 l 609 738 l 652 738 l 652 477 l 609 477 l 609 391 l 652 391 l 652 130 l 609 130 l 609 65 l 587 43 l 522 43 l 522 0 l 132 0 z "},"9":{"ha":693,"x_min":39,"x_max":647,"o":"m 538 91 q 551 95 545 91 q 555 109 555 100 q 551 121 555 115 q 538 125 545 125 q 525 121 530 125 q 521 109 521 115 q 525 95 521 100 q 538 91 530 91 m 473 87 l 473 130 l 170 130 l 170 87 l 473 87 m 538 87 q 522 92 529 87 q 517 109 517 99 q 522 123 517 117 q 538 130 529 130 l 517 130 l 517 87 l 538 87 m 560 87 l 560 130 l 538 130 q 553 123 547 130 q 560 109 560 117 q 553 92 560 99 q 538 87 547 87 l 560 87 m 560 174 l 560 260 l 517 260 l 517 174 l 560 174 m 582 308 q 594 312 589 308 q 598 326 598 317 q 594 338 598 332 q 582 342 589 342 q 568 338 574 342 q 564 326 564 332 q 568 312 564 317 q 582 308 574 308 m 473 391 l 473 651 q 460 681 473 669 q 430 694 448 694 l 170 694 l 170 434 l 213 434 l 213 391 l 473 391 m 560 391 l 560 694 l 517 694 l 560 673 l 517 651 l 560 629 l 517 608 l 560 586 l 517 564 l 560 543 l 517 521 l 560 499 l 517 477 l 560 456 l 517 434 l 560 412 l 517 391 l 560 391 m 538 742 q 551 746 545 742 q 555 760 555 751 q 551 772 555 766 q 538 776 545 776 q 525 772 530 776 q 521 760 521 766 q 525 746 521 751 q 538 742 530 742 m 235 738 l 213 781 l 213 738 l 235 738 m 278 738 l 256 781 l 235 781 l 256 738 l 278 738 m 321 738 l 300 781 l 278 781 l 300 738 l 321 738 m 365 738 l 343 781 l 321 781 l 343 738 l 365 738 m 408 738 l 387 781 l 365 781 l 387 738 l 408 738 m 452 738 l 430 781 l 408 781 l 430 738 l 452 738 m 473 738 l 473 781 l 452 781 l 473 738 m 170 825 l 170 846 q 153 840 160 846 q 148 825 148 833 l 170 825 m 126 0 l 126 174 l 473 174 l 473 217 l 126 217 l 126 304 l 83 304 l 83 347 l 39 347 l 39 738 l 83 738 l 83 825 l 126 825 q 138 854 126 842 q 170 868 151 868 l 517 868 l 517 825 l 560 825 l 604 781 l 604 738 l 647 738 l 647 130 l 604 130 l 604 65 l 582 43 l 517 43 l 517 0 l 126 0 z "}," ":{"ha":377,"x_min":0,"x_max":0,"o":""},"!":{"ha":241,"x_min":50,"x_max":224,"o":"m 115 91 q 127 95 122 91 q 132 109 132 100 q 127 121 132 115 q 115 125 122 125 q 102 121 107 125 q 98 109 98 115 q 102 95 98 100 q 115 91 107 91 m 115 87 q 99 92 106 87 q 94 109 94 99 q 99 123 94 117 q 115 130 106 130 l 94 130 l 94 87 l 115 87 m 137 87 l 137 130 l 115 130 q 130 123 123 130 q 137 109 137 117 q 130 92 137 99 q 115 87 123 87 l 137 87 m 50 0 l 50 174 l 180 174 l 180 0 l 50 0 m 94 781 l 94 803 q 77 796 84 803 q 72 781 72 789 l 94 781 m 50 217 l 50 781 q 62 811 50 799 q 94 825 75 825 l 180 825 l 180 326 l 202 304 l 224 304 l 224 260 l 180 260 l 180 239 l 159 217 l 50 217 z "},"\"":{"ha":250,"x_min":50,"x_max":224,"o":"m 115 481 q 127 486 122 481 q 132 499 132 491 q 127 511 132 506 q 115 515 122 515 q 102 511 107 515 q 98 499 98 506 q 102 486 98 491 q 115 481 107 481 m 50 434 l 50 694 l 180 694 l 180 564 l 224 564 l 224 499 l 202 477 l 180 477 l 180 434 l 50 434 z "},"#":{"ha":674,"x_min":37,"x_max":644,"o":"m 449 438 q 461 442 456 438 q 465 456 465 448 q 461 468 465 463 q 449 472 456 472 q 435 468 441 472 q 431 456 431 463 q 435 442 431 448 q 449 438 441 438 m 384 260 l 384 564 l 297 564 l 297 260 l 384 260 m 102 608 l 80 651 l 80 608 l 102 608 m 145 608 l 123 651 l 102 651 l 123 608 l 145 608 m 167 608 l 167 651 l 145 651 l 167 608 m 427 608 l 427 651 l 297 651 l 297 608 l 427 608 m 601 608 l 601 651 l 514 651 l 514 608 l 601 608 m 232 655 q 244 659 239 655 q 248 673 248 665 q 244 685 248 680 q 232 689 239 689 q 218 685 224 689 q 214 673 214 680 q 218 659 214 665 q 232 655 224 655 m 167 825 l 167 846 q 151 840 157 846 q 145 825 145 833 l 167 825 m 123 0 l 123 130 l 37 130 l 37 260 l 123 260 l 123 564 l 37 564 l 37 738 l 123 738 l 123 825 q 136 854 123 842 q 167 868 148 868 l 297 868 l 297 738 l 384 738 l 384 868 l 514 868 l 514 760 l 536 738 l 644 738 l 644 564 l 514 564 l 514 260 l 644 260 l 644 152 l 623 130 l 514 130 l 514 0 l 384 0 l 384 130 l 297 130 l 297 0 l 123 0 z "},"$":{"ha":671,"x_min":33,"x_max":640,"o":"m 401 87 l 380 130 l 380 87 l 401 87 m 445 87 l 423 130 l 401 130 l 423 87 l 445 87 m 467 87 l 467 130 l 445 130 l 467 87 m 467 174 l 467 347 l 423 347 l 423 174 l 467 174 m 553 130 l 553 347 l 510 347 l 510 130 l 553 130 m 250 521 l 250 694 l 163 694 l 163 521 l 250 521 m 597 608 l 597 651 l 553 651 l 553 694 l 510 694 l 510 608 l 597 608 m 184 738 l 163 781 l 163 738 l 184 738 m 228 738 l 206 781 l 184 781 l 206 738 l 228 738 m 271 738 l 250 781 l 228 781 l 250 738 l 271 738 m 293 738 l 293 781 l 271 781 l 293 738 m 553 738 l 553 781 l 510 781 l 510 738 l 553 738 m 380 -87 l 380 43 l 336 43 l 336 434 l 467 434 l 467 477 l 380 477 l 380 738 l 467 738 l 467 825 l 380 825 l 380 911 l 293 911 l 293 825 l 336 825 l 336 434 l 163 434 l 163 391 l 293 391 l 293 87 l 206 87 l 206 43 l 293 43 l 293 -87 l 380 -87 m 250 -130 l 250 0 l 119 0 l 119 43 l 98 43 q 81 49 88 43 q 76 65 76 56 l 76 87 l 33 87 l 33 260 l 163 260 l 163 174 l 206 174 l 206 130 l 250 130 l 250 347 l 119 347 l 119 434 l 76 434 l 76 477 l 33 477 l 33 738 l 76 738 l 76 825 l 119 825 l 119 868 l 250 868 l 250 955 l 423 955 l 423 868 l 510 868 l 510 825 l 553 825 l 597 781 l 597 760 l 618 738 l 640 738 l 640 564 l 467 564 l 467 651 q 453 681 467 669 q 423 694 441 694 l 423 521 l 510 521 l 510 434 l 597 434 l 597 391 l 640 391 l 640 87 l 597 87 l 597 65 l 575 43 l 510 43 l 510 0 l 423 0 l 423 -130 l 250 -130 z "},"%":{"ha":699,"x_min":46,"x_max":654,"o":"m 545 91 q 557 95 552 91 q 562 109 562 100 q 557 121 562 115 q 545 125 552 125 q 532 121 537 125 q 528 109 528 115 q 532 95 528 100 q 545 91 537 91 m 545 87 q 529 92 536 87 q 524 109 524 99 q 529 123 524 117 q 545 130 536 130 l 524 130 l 524 87 l 545 87 m 567 87 l 567 130 l 545 130 q 560 123 553 130 q 567 109 567 117 q 560 92 567 99 q 545 87 553 87 l 567 87 m 545 612 q 557 616 552 612 q 562 629 562 621 q 557 642 562 636 q 545 646 552 646 q 532 642 537 646 q 528 629 528 636 q 532 616 528 621 q 545 612 537 612 m 198 694 l 176 738 l 176 694 l 198 694 m 241 694 l 220 738 l 198 738 l 220 694 l 241 694 m 263 694 l 263 738 l 241 738 l 263 694 m 567 694 l 567 825 l 524 825 l 567 803 l 524 781 l 567 760 l 524 738 l 567 716 l 524 694 l 567 694 m 176 825 l 176 846 q 160 840 167 846 q 155 825 155 833 l 176 825 m 46 0 l 46 260 l 90 260 l 90 304 l 133 304 l 133 391 l 220 391 l 220 477 l 133 477 l 133 564 l 46 564 l 46 738 l 90 738 l 90 825 l 133 825 q 145 854 133 842 q 176 868 157 868 l 307 868 l 307 825 l 350 825 l 350 738 l 437 738 l 437 694 l 480 694 l 480 868 l 654 868 l 654 564 l 524 564 l 524 477 l 480 477 l 480 391 l 524 391 l 524 304 l 610 304 l 610 260 l 654 260 l 654 130 l 610 130 l 610 65 l 589 43 l 524 43 l 524 0 l 393 0 l 393 43 l 350 43 l 350 130 l 263 130 l 263 174 l 176 174 l 176 0 l 46 0 z "},"&":{"ha":684,"x_min":45,"x_max":652,"o":"m 544 91 q 556 95 551 91 q 560 109 560 100 q 556 121 560 115 q 544 125 551 125 q 530 121 536 125 q 526 109 526 115 q 530 95 526 100 q 544 91 536 91 m 349 87 l 349 130 l 218 130 l 218 87 l 349 87 m 544 87 q 528 92 534 87 q 522 109 522 99 q 528 123 522 117 q 544 130 534 130 l 522 130 l 522 87 l 544 87 m 566 87 l 566 130 l 544 130 q 559 123 552 130 q 566 109 566 117 q 559 92 566 99 q 544 87 552 87 l 566 87 m 349 174 l 349 217 l 262 217 l 262 304 l 175 304 l 175 174 l 349 174 m 544 308 q 556 312 551 308 q 560 326 560 317 q 556 338 560 332 q 544 342 551 342 q 530 338 536 342 q 526 326 526 332 q 530 312 526 317 q 544 308 536 308 m 262 564 l 262 608 l 349 608 l 349 651 q 335 681 349 669 q 305 694 323 694 l 175 694 l 175 564 l 262 564 m 240 738 l 218 781 l 218 738 l 240 738 m 283 738 l 262 781 l 240 781 l 262 738 l 283 738 m 327 738 l 305 781 l 283 781 l 305 738 l 327 738 m 349 738 l 349 781 l 327 781 l 349 738 m 175 825 l 175 846 q 159 840 165 846 q 153 825 153 833 l 175 825 m 132 0 l 132 43 l 110 43 q 94 49 100 43 q 88 65 88 56 l 88 130 l 45 130 l 45 391 l 88 391 l 88 477 l 45 477 l 45 738 l 88 738 l 88 825 l 132 825 q 144 854 132 842 q 175 868 156 868 l 435 868 l 435 825 l 479 781 l 479 738 l 522 738 l 522 564 l 435 564 l 435 477 l 349 477 l 349 391 l 435 391 l 435 304 l 479 304 l 479 391 l 652 391 l 652 217 l 609 217 l 609 174 l 652 174 l 652 22 l 631 0 l 479 0 l 479 43 l 435 43 l 435 0 l 132 0 z "},"'":{"ha":251,"x_min":50,"x_max":224,"o":"m 115 481 q 127 486 122 481 q 132 499 132 491 q 127 511 132 506 q 115 515 122 515 q 102 511 107 515 q 98 499 98 506 q 102 486 98 491 q 115 481 107 481 m 50 434 l 50 694 l 180 694 l 180 586 l 202 564 l 224 564 l 224 477 l 180 477 l 180 434 l 50 434 z "},"(":{"ha":490,"x_min":18,"x_max":452,"o":"m 343 91 q 355 95 350 91 q 359 109 359 100 q 355 121 359 115 q 343 125 350 125 q 330 121 335 125 q 326 109 326 115 q 330 95 326 100 q 343 91 335 91 m 343 87 q 327 92 334 87 q 321 109 321 99 q 327 123 321 117 q 343 130 334 130 l 321 130 l 321 87 l 343 87 m 365 87 l 365 130 l 343 130 q 358 123 351 130 q 365 109 365 117 q 358 92 365 99 q 343 87 351 87 l 365 87 m 213 612 q 225 616 220 612 q 229 629 229 621 q 225 642 229 636 q 213 646 220 646 q 199 642 205 646 q 195 629 195 636 q 199 616 195 621 q 213 612 205 612 m 343 742 q 355 746 350 742 q 359 760 359 751 q 355 772 359 766 q 343 776 350 776 q 330 772 335 776 q 326 760 326 766 q 330 746 326 751 q 343 742 335 742 m 235 0 l 235 130 l 148 130 l 148 174 l 104 174 l 104 217 l 18 217 l 18 608 l 104 608 l 104 694 l 148 694 l 148 738 l 235 738 l 235 825 l 278 825 l 278 868 l 365 868 l 365 911 l 408 911 l 452 868 l 452 825 l 408 825 l 408 694 l 278 694 l 278 564 l 191 564 l 191 260 l 278 260 l 278 174 l 408 174 l 408 22 l 387 0 l 235 0 z "},")":{"ha":494,"x_min":35,"x_max":469,"o":"m 144 91 q 156 95 151 91 q 160 109 160 100 q 156 121 160 115 q 144 125 151 125 q 130 121 136 125 q 126 109 126 115 q 130 95 126 100 q 144 91 136 91 m 382 304 l 382 564 l 339 564 l 382 543 l 339 521 l 382 499 l 339 477 l 382 456 l 339 434 l 382 412 l 339 391 l 382 369 l 339 347 l 382 326 l 339 304 l 382 304 m 274 612 q 286 616 281 612 q 290 629 290 621 q 286 642 290 636 q 274 646 281 646 q 260 642 266 646 q 256 629 256 636 q 260 616 256 621 q 274 612 266 612 m 361 612 q 373 616 368 612 q 377 629 377 621 q 373 642 377 636 q 361 646 368 646 q 347 642 353 646 q 343 629 343 636 q 347 616 343 621 q 361 612 353 612 m 165 825 l 165 846 q 149 840 156 846 q 144 825 144 833 l 165 825 m 79 0 l 79 174 l 209 174 l 209 260 l 296 260 l 296 564 l 209 564 l 209 694 l 79 694 l 79 738 l 35 738 l 35 781 l 79 781 l 79 825 l 122 825 q 134 854 122 842 q 165 868 146 868 l 209 868 l 209 825 l 296 825 l 296 738 l 339 738 l 339 694 l 426 694 l 426 629 l 448 608 l 469 608 l 469 217 l 426 217 l 426 195 l 404 174 l 339 174 l 339 130 l 296 130 l 296 43 l 252 43 l 252 0 l 79 0 z "},"*":{"ha":701,"x_min":22,"x_max":673,"o":"m 608 568 q 620 572 614 568 q 624 586 624 578 q 620 598 624 593 q 608 602 614 602 q 594 598 600 602 q 590 586 590 593 q 594 572 590 578 q 608 568 600 568 m 369 260 l 369 781 l 326 781 l 326 260 l 369 260 m 282 174 l 282 434 l 195 434 l 195 304 l 65 304 l 65 347 l 22 347 l 22 434 l 65 434 l 65 477 l 109 477 l 109 521 l 65 521 l 65 608 l 22 608 l 22 694 l 195 694 l 195 564 l 282 564 l 282 825 l 456 825 l 456 564 l 499 564 l 499 694 l 673 694 l 673 521 l 586 521 l 586 477 l 673 477 l 673 326 l 651 304 l 499 304 l 499 434 l 456 434 l 456 174 l 282 174 z "},"+":{"ha":637,"x_min":15,"x_max":623,"o":"m 275 694 l 275 716 q 259 709 266 716 q 254 694 254 703 l 275 694 m 232 130 l 232 347 l 15 347 l 15 521 l 232 521 l 232 694 q 244 724 232 712 q 275 738 256 738 l 406 738 l 406 521 l 623 521 l 623 347 l 406 347 l 406 152 l 384 130 l 232 130 z "},",":{"ha":243,"x_min":50,"x_max":224,"o":"m 50 -174 l 50 87 l 180 87 l 180 43 l 224 43 l 224 22 l 202 0 l 180 0 l 180 -174 l 50 -174 z "},"-":{"ha":612,"x_min":50,"x_max":571,"o":"m 50 347 l 50 477 l 528 477 l 528 434 l 571 434 l 571 391 l 528 391 l 528 369 l 506 347 l 50 347 z "},".":{"ha":247,"x_min":50,"x_max":224,"o":"m 115 91 q 127 95 122 91 q 132 109 132 100 q 127 121 132 115 q 115 125 122 125 q 102 121 107 125 q 98 109 98 115 q 102 95 98 100 q 115 91 107 91 m 115 87 q 99 92 106 87 q 94 109 94 99 q 99 123 94 117 q 115 130 106 130 l 94 130 l 94 87 l 115 87 m 137 87 l 137 130 l 115 130 q 130 123 123 130 q 137 109 137 117 q 130 92 137 99 q 115 87 123 87 l 137 87 m 50 0 l 50 174 l 180 174 l 180 87 l 224 87 l 224 65 l 202 43 l 180 43 l 180 0 l 50 0 z "},"/":{"ha":712,"x_min":11,"x_max":705,"o":"m 250 264 q 262 269 256 264 q 266 282 266 274 q 262 294 266 289 q 250 298 256 298 q 236 294 241 298 q 232 282 232 289 q 236 269 232 274 q 250 264 241 264 m 532 825 l 532 846 q 515 840 522 846 q 510 825 510 833 l 532 825 m 11 0 l 11 217 l 54 217 l 54 260 l 98 260 l 98 304 l 141 304 l 141 347 l 184 391 l 184 434 l 271 434 l 271 477 l 315 521 l 358 521 l 358 564 l 401 564 l 401 608 l 488 608 l 488 825 q 500 854 488 842 q 532 868 513 868 l 662 868 l 662 694 l 705 694 l 705 651 l 662 651 l 662 564 l 532 564 l 532 477 l 445 477 l 445 347 l 315 347 l 315 239 l 293 217 l 184 217 l 184 0 l 11 0 z "},":":{"ha":241,"x_min":49,"x_max":222,"o":"m 114 134 q 126 138 121 134 q 130 152 130 144 q 126 164 130 159 q 114 168 121 168 q 100 164 106 168 q 96 152 96 159 q 100 138 96 144 q 114 134 106 134 m 114 130 q 98 136 104 130 q 92 152 92 142 q 98 167 92 160 q 114 174 104 174 l 92 174 l 92 130 l 114 130 m 136 130 l 136 174 l 114 174 q 129 167 122 174 q 136 152 136 160 q 129 136 136 142 q 114 130 122 130 l 136 130 m 49 43 l 49 217 l 179 217 l 179 65 l 157 43 l 49 43 m 92 608 l 92 629 q 76 623 83 629 q 71 608 71 616 l 92 608 m 49 477 l 49 608 q 61 637 49 625 q 92 651 73 651 l 179 651 l 179 564 l 222 564 l 222 521 l 179 521 l 179 477 l 49 477 z "},";":{"ha":247,"x_min":50,"x_max":224,"o":"m 115 178 q 127 182 122 178 q 132 195 132 187 q 127 208 132 202 q 115 212 122 212 q 102 208 107 212 q 98 195 98 202 q 102 182 98 187 q 115 178 107 178 m 115 174 q 99 179 106 174 q 94 195 94 186 q 99 210 94 203 q 115 217 106 217 l 94 217 l 94 174 l 115 174 m 137 174 l 137 217 l 115 217 q 130 210 123 217 q 137 195 137 203 q 130 179 137 186 q 115 174 123 174 l 137 174 m 50 0 l 50 260 l 180 260 l 180 22 l 159 0 l 50 0 m 50 434 l 50 564 l 180 564 l 180 521 l 224 521 l 224 477 l 180 477 l 180 434 l 50 434 z "},"<":{"ha":452,"x_min":11,"x_max":401,"o":"m 293 91 q 305 95 300 91 q 309 109 309 100 q 305 121 309 115 q 293 125 300 125 q 279 121 285 125 q 275 109 275 115 q 279 95 275 100 q 293 91 285 91 m 293 87 q 277 92 283 87 q 271 109 271 99 q 277 123 271 117 q 293 130 283 130 l 271 130 l 271 87 l 293 87 m 315 87 l 315 130 l 293 130 q 308 123 301 130 q 315 109 315 117 q 308 92 315 99 q 293 87 301 87 l 315 87 m 271 564 l 271 586 q 255 579 262 586 q 250 564 250 572 l 271 564 m 228 0 l 228 130 l 141 130 l 141 174 l 98 174 l 98 217 l 11 217 l 11 391 l 98 391 l 98 434 l 141 434 l 141 477 l 184 521 l 228 521 l 228 564 q 240 594 228 582 q 271 608 252 608 l 401 608 l 401 477 l 358 477 l 358 434 l 271 434 l 271 347 l 228 347 l 228 260 l 271 260 l 271 174 l 401 174 l 401 22 l 380 0 l 228 0 z "},"=":{"ha":708,"x_min":50,"x_max":658,"o":"m 50 217 l 50 391 l 658 391 l 658 239 l 636 217 l 50 217 m 94 564 l 94 586 q 77 579 84 586 q 72 564 72 572 l 94 564 m 50 477 l 50 564 q 62 594 50 582 q 94 608 75 608 l 658 608 l 658 477 l 50 477 z "},">":{"ha":456,"x_min":49,"x_max":439,"o":"m 114 91 q 126 95 121 91 q 130 109 130 100 q 126 121 130 115 q 114 125 121 125 q 100 121 106 125 q 96 109 96 115 q 100 95 96 100 q 114 91 106 91 m 114 87 q 98 92 104 87 q 92 109 92 99 q 98 123 92 117 q 114 130 104 130 l 92 130 l 92 87 l 114 87 m 136 87 l 136 130 l 114 130 q 129 123 122 130 q 136 109 136 117 q 129 92 136 99 q 114 87 122 87 l 136 87 m 49 0 l 49 174 l 179 174 l 179 260 l 266 260 l 266 347 l 179 347 l 179 434 l 136 434 l 136 477 l 49 477 l 49 564 l 92 608 l 222 608 l 222 564 l 266 564 l 266 521 l 353 521 l 353 434 l 396 434 l 396 391 l 439 391 l 439 217 l 396 217 l 396 174 l 309 174 l 309 152 l 288 130 l 266 130 l 266 43 l 222 43 l 222 0 l 49 0 z "},"?":{"ha":654,"x_min":22,"x_max":629,"o":"m 304 91 q 316 95 311 91 q 320 109 320 100 q 316 121 320 115 q 304 125 311 125 q 290 121 296 125 q 286 109 286 115 q 290 95 286 100 q 304 91 296 91 m 304 87 q 288 92 294 87 q 282 109 282 99 q 288 123 282 117 q 304 130 294 130 l 282 130 l 282 87 l 304 87 m 326 87 l 326 130 l 304 130 q 319 123 312 130 q 326 109 326 117 q 319 92 326 99 q 304 87 312 87 l 326 87 m 239 0 l 239 174 l 412 174 l 412 0 l 239 0 m 87 612 q 99 616 94 612 q 103 629 103 621 q 99 642 103 636 q 87 646 94 646 q 73 642 79 646 q 69 629 69 636 q 73 616 69 621 q 87 612 79 612 m 543 564 l 543 694 l 499 694 l 543 673 l 499 651 l 543 629 l 499 608 l 543 586 l 499 564 l 543 564 m 521 742 q 533 746 528 742 q 537 760 537 751 q 533 772 537 766 q 521 776 528 776 q 507 772 513 776 q 503 760 503 766 q 507 746 503 751 q 521 742 513 742 m 217 738 l 195 781 l 195 738 l 217 738 m 260 738 l 239 781 l 217 781 l 239 738 l 260 738 m 304 738 l 282 781 l 260 781 l 282 738 l 304 738 m 347 738 l 326 781 l 304 781 l 326 738 l 347 738 m 391 738 l 369 781 l 347 781 l 369 738 l 391 738 m 434 738 l 412 781 l 391 781 l 412 738 l 434 738 m 456 738 l 456 781 l 434 781 l 456 738 m 152 825 l 152 846 q 136 840 142 846 q 130 825 130 833 l 152 825 m 239 217 l 239 391 l 326 391 l 326 434 l 369 434 l 369 521 l 456 521 l 456 651 q 442 681 456 669 q 412 694 430 694 l 152 694 l 152 564 l 22 564 l 22 738 l 65 738 l 65 825 l 109 825 q 121 854 109 842 q 152 868 133 868 l 499 868 l 499 825 l 543 825 l 586 781 l 586 760 l 608 738 l 629 738 l 629 477 l 586 477 l 586 434 l 499 434 l 499 369 l 477 347 l 456 347 l 456 304 l 412 304 l 412 217 l 239 217 z "},"@":{"ha":703,"x_min":49,"x_max":656,"o":"m 548 91 q 560 95 555 91 q 564 109 564 100 q 560 121 564 115 q 548 125 555 125 q 534 121 540 125 q 530 109 530 115 q 534 95 530 100 q 548 91 540 91 m 548 87 q 532 92 538 87 q 526 109 526 99 q 532 123 526 117 q 548 130 538 130 l 526 130 l 526 87 l 548 87 m 570 87 l 570 130 l 548 130 q 563 123 556 130 q 570 109 570 117 q 563 92 570 99 q 548 87 556 87 l 570 87 m 114 134 q 126 138 121 134 q 130 152 130 144 q 126 164 130 159 q 114 168 121 168 q 100 164 106 168 q 96 152 96 159 q 100 138 96 144 q 114 134 106 134 m 483 174 l 483 304 l 439 304 l 439 174 l 483 174 m 114 308 q 126 312 121 308 q 130 326 130 317 q 126 338 130 332 q 114 342 121 342 q 100 338 106 342 q 96 326 96 332 q 100 312 96 317 q 114 308 106 308 m 570 174 l 570 391 l 526 391 l 570 369 l 526 347 l 570 326 l 526 304 l 570 282 l 526 260 l 570 239 l 526 217 l 570 195 l 526 174 l 570 174 m 114 525 q 126 529 121 525 q 130 543 130 534 q 126 555 130 549 q 114 559 121 559 q 100 555 106 559 q 96 543 96 549 q 100 529 96 534 q 114 525 106 525 m 570 477 l 570 694 l 526 694 l 526 477 l 570 477 m 244 738 l 222 781 l 222 738 l 244 738 m 288 738 l 266 781 l 244 781 l 266 738 l 288 738 m 331 738 l 309 781 l 288 781 l 309 738 l 331 738 m 374 738 l 353 781 l 331 781 l 353 738 l 374 738 m 418 738 l 396 781 l 374 781 l 396 738 l 418 738 m 461 738 l 439 781 l 418 781 l 439 738 l 461 738 m 483 738 l 483 781 l 461 781 l 483 738 m 570 738 l 570 781 l 526 781 l 526 738 l 570 738 m 179 825 l 179 846 q 163 840 170 846 q 157 825 157 833 l 179 825 m 49 0 l 49 738 l 92 738 l 92 825 l 136 825 q 148 854 136 842 q 179 868 160 868 l 526 868 l 526 825 l 570 825 l 613 781 l 613 760 l 635 738 l 656 738 l 656 130 l 613 130 l 613 65 l 591 43 l 526 43 l 526 0 l 396 0 l 396 43 l 353 43 l 353 130 l 266 130 l 266 391 l 353 391 l 353 434 l 396 434 l 396 521 l 483 521 l 483 651 q 469 681 483 669 q 439 694 457 694 l 179 694 l 179 0 l 49 0 z "},"A":{"ha":703,"x_min":47,"x_max":655,"o":"m 612 43 l 612 434 l 91 434 l 91 260 l 134 260 l 134 391 l 525 391 l 525 43 l 612 43 m 481 521 l 481 651 q 468 681 481 669 q 438 694 456 694 l 178 694 l 178 521 l 481 521 m 568 477 l 568 694 l 525 694 l 568 673 l 525 651 l 568 629 l 525 608 l 568 586 l 525 564 l 568 543 l 525 521 l 568 499 l 525 477 l 568 477 m 243 738 l 221 781 l 221 738 l 243 738 m 286 738 l 264 781 l 243 781 l 264 738 l 286 738 m 330 738 l 308 781 l 286 781 l 308 738 l 330 738 m 373 738 l 351 781 l 330 781 l 351 738 l 373 738 m 416 738 l 395 781 l 373 781 l 395 738 l 416 738 m 460 738 l 438 781 l 416 781 l 438 738 l 460 738 m 481 738 l 481 781 l 460 781 l 481 738 m 178 825 l 178 846 q 161 840 168 846 q 156 825 156 833 l 178 825 m 47 0 l 47 694 l 91 738 l 91 825 l 134 825 q 146 854 134 842 q 178 868 159 868 l 525 868 l 525 825 l 568 781 l 612 781 l 612 760 l 633 738 l 655 738 l 655 22 l 633 0 l 481 0 l 481 347 l 221 347 l 178 304 l 178 0 l 47 0 z "},"B":{"ha":703,"x_min":50,"x_max":658,"o":"m 549 91 q 562 95 556 91 q 566 109 566 100 q 562 121 566 115 q 549 125 556 125 q 536 121 541 125 q 532 109 532 115 q 536 95 532 100 q 549 91 541 91 m 484 87 l 484 130 l 137 130 l 137 87 l 484 87 m 549 87 q 533 92 540 87 q 528 109 528 99 q 533 123 528 117 q 549 130 540 130 l 528 130 l 528 87 l 549 87 m 571 87 l 571 130 l 549 130 q 564 123 557 130 q 571 109 571 117 q 564 92 571 99 q 549 87 557 87 l 571 87 m 571 174 l 571 304 l 528 304 l 528 174 l 571 174 m 484 174 l 484 347 l 224 347 l 180 304 l 180 174 l 484 174 m 484 521 l 484 651 q 471 681 484 669 q 441 694 458 694 l 180 694 l 180 521 l 484 521 m 571 564 l 571 694 l 528 694 l 571 673 l 528 651 l 571 629 l 528 608 l 571 586 l 528 564 l 571 564 m 549 742 q 562 746 556 742 q 566 760 566 751 q 562 772 566 766 q 549 776 556 776 q 536 772 541 776 q 532 760 532 766 q 536 746 532 751 q 549 742 541 742 m 159 738 l 137 781 l 137 738 l 159 738 m 202 738 l 180 781 l 159 781 l 180 738 l 202 738 m 245 738 l 224 781 l 202 781 l 224 738 l 245 738 m 289 738 l 267 781 l 245 781 l 267 738 l 289 738 m 332 738 l 311 781 l 289 781 l 311 738 l 332 738 m 376 738 l 354 781 l 332 781 l 354 738 l 376 738 m 419 738 l 397 781 l 376 781 l 397 738 l 419 738 m 463 738 l 441 781 l 419 781 l 441 738 l 463 738 m 484 738 l 484 781 l 463 781 l 484 738 m 94 825 l 94 846 q 77 840 84 846 q 72 825 72 833 l 94 825 m 50 0 l 50 825 q 62 854 50 842 q 94 868 75 868 l 528 868 l 528 825 l 571 825 l 614 781 l 614 760 l 636 738 l 658 738 l 658 477 l 614 477 l 614 391 l 658 391 l 658 130 l 614 130 l 614 65 l 593 43 l 528 43 l 528 0 l 50 0 z "},"C":{"ha":692,"x_min":46,"x_max":654,"o":"m 545 91 q 557 95 552 91 q 562 109 562 100 q 557 121 562 115 q 545 125 552 125 q 532 121 537 125 q 528 109 528 115 q 532 95 528 100 q 545 91 537 91 m 480 87 l 480 130 l 220 130 l 220 87 l 480 87 m 545 87 q 529 92 536 87 q 524 109 524 99 q 529 123 524 117 q 545 130 536 130 l 524 130 l 524 87 l 545 87 m 567 87 l 567 130 l 545 130 q 560 123 553 130 q 567 109 567 117 q 560 92 567 99 q 545 87 553 87 l 567 87 m 545 178 q 557 182 552 178 q 562 195 562 187 q 557 208 562 202 q 545 212 552 212 q 532 208 537 212 q 528 195 528 202 q 532 182 528 187 q 545 178 537 178 m 610 608 l 610 651 l 567 651 l 567 694 l 524 694 l 524 608 l 610 608 m 241 738 l 220 781 l 220 738 l 241 738 m 285 738 l 263 781 l 241 781 l 263 738 l 285 738 m 328 738 l 307 781 l 285 781 l 307 738 l 328 738 m 372 738 l 350 781 l 328 781 l 350 738 l 372 738 m 415 738 l 393 781 l 372 781 l 393 738 l 415 738 m 458 738 l 437 781 l 415 781 l 437 738 l 458 738 m 480 738 l 480 781 l 458 781 l 480 738 m 176 825 l 176 846 q 160 840 167 846 q 155 825 155 833 l 176 825 m 133 0 l 133 43 l 111 43 q 95 49 102 43 q 90 65 90 56 l 90 130 l 46 130 l 46 694 l 90 738 l 90 825 l 133 825 q 145 854 133 842 q 176 868 157 868 l 524 868 l 524 825 l 567 781 l 610 781 l 610 760 l 632 738 l 654 738 l 654 564 l 480 564 l 480 651 q 467 681 480 669 q 437 694 454 694 l 176 694 l 176 174 l 480 174 l 480 260 l 654 260 l 654 130 l 610 130 l 610 65 l 589 43 l 524 43 l 524 0 l 133 0 z "},"D":{"ha":704,"x_min":50,"x_max":658,"o":"m 549 91 q 562 95 556 91 q 566 109 566 100 q 562 121 566 115 q 549 125 556 125 q 536 121 541 125 q 532 109 532 115 q 536 95 532 100 q 549 91 541 91 m 484 87 l 484 130 l 137 130 l 137 87 l 484 87 m 549 87 q 533 92 540 87 q 528 109 528 99 q 533 123 528 117 q 549 130 540 130 l 528 130 l 528 87 l 549 87 m 571 87 l 571 130 l 549 130 q 564 123 557 130 q 571 109 571 117 q 564 92 571 99 q 549 87 557 87 l 571 87 m 115 178 q 127 182 122 178 q 132 195 132 187 q 127 208 132 202 q 115 212 122 212 q 102 208 107 212 q 98 195 98 202 q 102 182 98 187 q 115 178 107 178 m 115 395 q 127 399 122 395 q 132 412 132 404 q 127 425 132 419 q 115 429 122 429 q 102 425 107 429 q 98 412 98 419 q 102 399 98 404 q 115 395 107 395 m 484 174 l 484 651 q 471 681 484 669 q 441 694 458 694 l 180 694 l 180 174 l 484 174 m 571 174 l 571 694 l 528 694 l 571 673 l 528 651 l 571 629 l 528 608 l 571 586 l 528 564 l 571 543 l 528 521 l 571 499 l 528 477 l 571 456 l 528 434 l 571 412 l 528 391 l 571 369 l 528 347 l 571 326 l 528 304 l 571 282 l 528 260 l 571 239 l 528 217 l 571 195 l 528 174 l 571 174 m 159 738 l 137 781 l 137 738 l 159 738 m 202 738 l 180 781 l 159 781 l 180 738 l 202 738 m 245 738 l 224 781 l 202 781 l 224 738 l 245 738 m 289 738 l 267 781 l 245 781 l 267 738 l 289 738 m 332 738 l 311 781 l 289 781 l 311 738 l 332 738 m 376 738 l 354 781 l 332 781 l 354 738 l 376 738 m 419 738 l 397 781 l 376 781 l 397 738 l 419 738 m 463 738 l 441 781 l 419 781 l 441 738 l 463 738 m 484 738 l 484 781 l 463 781 l 484 738 m 94 825 l 94 846 q 77 840 84 846 q 72 825 72 833 l 94 825 m 50 0 l 50 825 q 62 854 50 842 q 94 868 75 868 l 528 868 l 528 825 l 571 781 l 614 781 l 614 760 l 636 738 l 658 738 l 658 130 l 614 130 l 614 65 l 593 43 l 528 43 l 528 0 l 50 0 z "},"E":{"ha":787,"x_min":50,"x_max":745,"o":"m 658 87 l 658 130 l 180 130 l 180 87 l 658 87 m 202 738 l 180 781 l 180 738 l 202 738 m 245 738 l 224 781 l 202 781 l 224 738 l 245 738 m 289 738 l 267 781 l 245 781 l 267 738 l 289 738 m 332 738 l 311 781 l 289 781 l 311 738 l 332 738 m 376 738 l 354 781 l 332 781 l 354 738 l 376 738 m 419 738 l 397 781 l 376 781 l 397 738 l 419 738 m 463 738 l 441 781 l 419 781 l 441 738 l 463 738 m 506 738 l 484 781 l 463 781 l 484 738 l 506 738 m 549 738 l 528 781 l 506 781 l 528 738 l 549 738 m 593 738 l 571 781 l 549 781 l 571 738 l 593 738 m 614 738 l 614 781 l 593 781 l 614 738 m 94 825 l 94 846 q 77 840 84 846 q 72 825 72 833 l 94 825 m 50 0 l 50 825 q 62 854 50 842 q 94 868 75 868 l 701 868 l 701 846 l 723 825 l 745 825 l 745 781 l 701 781 l 701 694 l 224 694 l 224 521 l 571 521 l 571 347 l 267 347 l 224 304 l 224 174 l 701 174 l 701 22 l 680 0 l 50 0 z "},"F":{"ha":751,"x_min":50,"x_max":745,"o":"m 202 738 l 180 781 l 180 738 l 202 738 m 245 738 l 224 781 l 202 781 l 224 738 l 245 738 m 289 738 l 267 781 l 245 781 l 267 738 l 289 738 m 332 738 l 311 781 l 289 781 l 311 738 l 332 738 m 376 738 l 354 781 l 332 781 l 354 738 l 376 738 m 419 738 l 397 781 l 376 781 l 397 738 l 419 738 m 463 738 l 441 781 l 419 781 l 441 738 l 463 738 m 506 738 l 484 781 l 463 781 l 484 738 l 506 738 m 549 738 l 528 781 l 506 781 l 528 738 l 549 738 m 593 738 l 571 781 l 549 781 l 571 738 l 593 738 m 614 738 l 614 781 l 593 781 l 614 738 m 94 825 l 94 846 q 77 840 84 846 q 72 825 72 833 l 94 825 m 50 0 l 50 825 q 62 854 50 842 q 94 868 75 868 l 701 868 l 701 846 l 723 825 l 745 825 l 745 781 l 701 781 l 701 694 l 224 694 l 224 521 l 571 521 l 571 369 l 549 347 l 267 347 l 224 304 l 224 0 l 50 0 z "},"G":{"ha":699,"x_min":46,"x_max":654,"o":"m 545 91 q 557 95 552 91 q 562 109 562 100 q 557 121 562 115 q 545 125 552 125 q 532 121 537 125 q 528 109 528 115 q 532 95 528 100 q 545 91 537 91 m 480 87 l 480 130 l 220 130 l 220 87 l 480 87 m 545 87 q 529 92 536 87 q 524 109 524 99 q 529 123 524 117 q 545 130 536 130 l 524 130 l 524 87 l 545 87 m 567 87 l 567 130 l 545 130 q 560 123 553 130 q 567 109 567 117 q 560 92 567 99 q 545 87 553 87 l 567 87 m 567 174 l 567 391 l 524 391 l 567 369 l 524 347 l 567 326 l 524 304 l 567 282 l 524 260 l 567 239 l 524 217 l 567 195 l 524 174 l 567 174 m 610 608 l 610 651 l 567 651 l 567 694 l 524 694 l 524 608 l 610 608 m 241 738 l 220 781 l 220 738 l 241 738 m 285 738 l 263 781 l 241 781 l 263 738 l 285 738 m 328 738 l 307 781 l 285 781 l 307 738 l 328 738 m 372 738 l 350 781 l 328 781 l 350 738 l 372 738 m 415 738 l 393 781 l 372 781 l 393 738 l 415 738 m 458 738 l 437 781 l 415 781 l 437 738 l 458 738 m 480 738 l 480 781 l 458 781 l 480 738 m 176 825 l 176 846 q 160 840 167 846 q 155 825 155 833 l 176 825 m 133 0 l 133 43 l 111 43 q 95 49 102 43 q 90 65 90 56 l 90 130 l 46 130 l 46 694 l 90 738 l 90 825 l 133 825 q 145 854 133 842 q 176 868 157 868 l 524 868 l 524 825 l 567 781 l 610 781 l 610 738 l 654 738 l 654 564 l 480 564 l 480 651 q 467 681 480 669 q 437 694 454 694 l 176 694 l 176 174 l 480 174 l 480 347 l 393 347 l 393 521 l 654 521 l 654 130 l 610 130 l 610 65 l 589 43 l 524 43 l 524 0 l 133 0 z "},"H":{"ha":783,"x_min":47,"x_max":742,"o":"m 612 43 l 612 825 l 568 825 l 612 803 l 568 781 l 612 760 l 568 738 l 612 716 l 568 694 l 612 673 l 568 651 l 612 629 l 568 608 l 612 586 l 568 564 l 612 543 l 568 521 l 612 499 l 568 477 l 612 456 l 568 434 l 612 412 l 568 391 l 612 369 l 568 347 l 612 326 l 568 304 l 612 282 l 568 260 l 612 239 l 568 217 l 612 195 l 568 174 l 612 152 l 568 130 l 612 109 l 568 87 l 612 65 l 568 43 l 612 43 m 91 825 l 91 846 q 75 840 81 846 q 69 825 69 833 l 91 825 m 47 0 l 47 825 q 60 854 47 842 q 91 868 72 868 l 221 868 l 221 521 l 525 521 l 525 868 l 612 868 l 612 911 l 699 911 l 699 890 l 720 868 l 742 868 l 742 825 l 699 825 l 699 0 l 525 0 l 525 347 l 264 347 l 221 304 l 221 0 l 47 0 z "},"I":{"ha":502,"x_min":34,"x_max":468,"o":"m 186 738 l 164 781 l 164 738 l 186 738 m 229 738 l 208 781 l 186 781 l 208 738 l 229 738 m 273 738 l 251 781 l 229 781 l 251 738 l 273 738 m 316 738 l 294 781 l 273 781 l 294 738 l 316 738 m 359 738 l 338 781 l 316 781 l 338 738 l 359 738 m 381 738 l 381 781 l 359 781 l 381 738 m 164 825 l 164 846 q 148 840 155 846 q 142 825 142 833 l 164 825 m 77 0 l 77 174 l 208 174 l 208 694 l 77 694 l 77 738 l 34 738 l 34 781 l 77 781 l 77 825 l 121 825 q 133 854 121 842 q 164 868 145 868 l 468 868 l 468 694 l 338 694 l 338 174 l 468 174 l 468 0 l 77 0 z "},"J":{"ha":739,"x_min":8,"x_max":703,"o":"m 203 87 l 182 130 l 182 87 l 203 87 m 247 87 l 225 130 l 203 130 l 225 87 l 247 87 m 290 87 l 269 130 l 247 130 l 269 87 l 290 87 m 334 87 l 312 130 l 290 130 l 312 87 l 334 87 m 377 87 l 355 130 l 334 130 l 355 87 l 377 87 m 420 87 l 399 130 l 377 130 l 399 87 l 420 87 m 464 87 l 442 130 l 420 130 l 442 87 l 464 87 m 486 87 l 486 130 l 464 130 l 486 87 m 95 347 l 95 369 q 79 362 85 369 q 73 347 73 355 l 95 347 m 572 304 l 572 825 l 529 825 l 572 803 l 529 781 l 572 760 l 529 738 l 572 716 l 529 694 l 572 673 l 529 651 l 572 629 l 529 608 l 572 586 l 529 564 l 572 543 l 529 521 l 572 499 l 529 477 l 572 456 l 529 434 l 572 412 l 529 391 l 572 369 l 529 347 l 572 326 l 529 304 l 572 304 m 138 0 l 138 43 l 117 43 q 100 49 107 43 q 95 65 95 56 l 95 130 l 8 130 l 8 347 l 52 347 q 64 377 52 365 q 95 391 76 391 l 182 391 l 182 174 l 486 174 l 486 868 l 572 868 l 572 911 l 659 911 l 659 890 l 681 868 l 703 868 l 703 825 l 659 825 l 659 130 l 572 130 l 572 65 l 551 43 l 529 43 l 529 0 l 138 0 z "},"K":{"ha":690,"x_min":49,"x_max":656,"o":"m 92 825 l 92 846 q 76 840 83 846 q 71 825 71 833 l 92 825 m 49 0 l 49 825 q 61 854 49 842 q 92 868 73 868 l 179 868 l 179 521 l 222 521 l 222 564 l 266 564 l 266 608 l 353 608 l 353 694 l 396 694 l 396 738 l 483 738 l 483 868 l 656 868 l 656 694 l 570 694 l 570 608 l 526 608 l 526 564 l 439 564 l 439 477 l 353 477 l 353 391 l 439 391 l 439 304 l 483 304 l 483 260 l 526 260 l 526 174 l 656 174 l 656 0 l 483 0 l 483 130 l 396 130 l 396 174 l 353 174 l 353 217 l 266 217 l 266 304 l 222 304 l 222 347 l 179 304 l 179 0 l 49 0 z "},"L":{"ha":749,"x_min":49,"x_max":743,"o":"m 201 87 l 179 130 l 179 87 l 201 87 m 244 87 l 222 130 l 201 130 l 222 87 l 244 87 m 288 87 l 266 130 l 244 130 l 266 87 l 288 87 m 331 87 l 309 130 l 288 130 l 309 87 l 331 87 m 374 87 l 353 130 l 331 130 l 353 87 l 374 87 m 418 87 l 396 130 l 374 130 l 396 87 l 418 87 m 461 87 l 439 130 l 418 130 l 439 87 l 461 87 m 505 87 l 483 130 l 461 130 l 483 87 l 505 87 m 548 87 l 526 130 l 505 130 l 526 87 l 548 87 m 591 87 l 570 130 l 548 130 l 570 87 l 591 87 m 613 87 l 613 130 l 591 130 l 613 87 m 157 655 q 170 659 164 655 q 174 673 174 665 q 170 685 174 680 q 157 689 164 689 q 144 685 149 689 q 140 673 140 680 q 144 659 140 665 q 157 655 149 655 m 92 825 l 92 846 q 76 840 83 846 q 71 825 71 833 l 92 825 m 92 0 l 92 43 l 49 43 l 49 825 q 61 854 49 842 q 92 868 73 868 l 222 868 l 222 174 l 700 174 l 700 87 l 743 87 l 743 43 l 700 43 l 700 0 l 92 0 z "},"M":{"ha":783,"x_min":47,"x_max":742,"o":"m 91 825 l 91 846 q 75 840 81 846 q 69 825 69 833 l 91 825 m 47 0 l 47 825 q 60 854 47 842 q 91 868 72 868 l 221 868 l 221 738 l 351 738 l 351 608 l 395 608 l 395 694 l 438 694 l 438 738 l 525 738 l 525 868 l 612 868 l 612 911 l 699 911 l 699 890 l 720 868 l 742 868 l 742 825 l 699 825 l 699 0 l 525 0 l 525 564 l 481 564 l 481 477 l 308 477 l 308 564 l 264 564 l 221 521 l 221 0 l 47 0 z "},"N":{"ha":783,"x_min":47,"x_max":742,"o":"m 156 91 q 168 95 163 91 q 172 109 172 100 q 168 121 172 115 q 156 125 163 125 q 142 121 148 125 q 138 109 138 115 q 142 95 138 100 q 156 91 148 91 m 633 178 q 646 182 640 178 q 650 195 650 187 q 646 208 650 202 q 633 212 640 212 q 620 208 625 212 q 616 195 616 202 q 620 182 616 187 q 633 178 625 178 m 633 481 q 646 486 640 481 q 650 499 650 491 q 646 511 650 506 q 633 515 640 515 q 620 511 625 515 q 616 499 616 506 q 620 486 616 491 q 633 481 625 481 m 199 612 q 212 616 206 612 q 216 629 216 621 q 212 642 216 636 q 199 646 206 646 q 186 642 191 646 q 182 629 182 636 q 186 616 182 621 q 199 612 191 612 m 286 612 q 298 616 293 612 q 302 629 302 621 q 298 642 302 636 q 286 646 293 646 q 273 642 278 646 q 269 629 269 636 q 273 616 269 621 q 286 612 278 612 m 91 825 l 91 846 q 75 840 81 846 q 69 825 69 833 l 91 825 m 47 0 l 47 825 q 60 854 47 842 q 91 868 72 868 l 221 868 l 221 738 l 351 738 l 351 608 l 481 608 l 481 521 l 525 521 l 525 868 l 612 868 l 612 911 l 699 911 l 699 890 l 720 868 l 742 868 l 742 825 l 699 825 l 699 0 l 525 0 l 525 347 l 438 347 l 438 434 l 395 434 l 395 477 l 308 477 l 308 564 l 264 564 l 221 521 l 221 0 l 47 0 z "},"O":{"ha":696,"x_min":45,"x_max":652,"o":"m 479 87 l 479 130 l 218 130 l 218 87 l 479 87 m 110 655 q 122 659 117 655 q 126 673 126 665 q 122 685 126 680 q 110 689 117 689 q 96 685 102 689 q 92 673 92 680 q 96 659 92 665 q 110 655 102 655 m 479 174 l 479 651 q 465 681 479 669 q 435 694 453 694 l 218 694 l 175 651 l 175 174 l 479 174 m 566 174 l 566 694 l 522 694 l 566 673 l 522 651 l 566 629 l 522 608 l 566 586 l 522 564 l 566 543 l 522 521 l 566 499 l 522 477 l 566 456 l 522 434 l 566 412 l 522 391 l 566 369 l 522 347 l 566 326 l 522 304 l 566 282 l 522 260 l 566 239 l 522 217 l 566 195 l 522 174 l 566 174 m 544 742 q 556 746 551 742 q 560 760 560 751 q 556 772 560 766 q 544 776 551 776 q 530 772 536 776 q 526 760 526 766 q 530 746 526 751 q 544 742 536 742 m 240 738 l 218 781 l 218 738 l 240 738 m 283 738 l 262 781 l 240 781 l 262 738 l 283 738 m 327 738 l 305 781 l 283 781 l 305 738 l 327 738 m 370 738 l 349 781 l 327 781 l 349 738 l 370 738 m 414 738 l 392 781 l 370 781 l 392 738 l 414 738 m 457 738 l 435 781 l 414 781 l 435 738 l 457 738 m 479 738 l 479 781 l 457 781 l 479 738 m 175 825 l 175 846 q 159 840 165 846 q 153 825 153 833 l 175 825 m 132 0 l 132 43 l 110 43 q 94 49 100 43 q 88 65 88 56 l 88 130 l 45 130 l 45 694 l 88 738 l 88 825 l 132 825 q 144 854 132 842 q 175 868 156 868 l 522 868 l 522 825 l 566 781 l 609 781 l 609 760 l 631 738 l 652 738 l 652 130 l 609 130 l 609 109 l 587 87 l 566 87 l 566 43 l 522 43 l 522 0 l 132 0 z "},"P":{"ha":666,"x_min":49,"x_max":656,"o":"m 483 521 l 483 651 q 469 681 483 669 q 439 694 457 694 l 222 694 l 179 651 l 179 521 l 483 521 m 570 564 l 570 694 l 526 694 l 570 673 l 526 651 l 570 629 l 526 608 l 570 586 l 526 564 l 570 564 m 157 738 l 136 781 l 136 738 l 157 738 m 201 738 l 179 781 l 157 781 l 179 738 l 201 738 m 244 738 l 222 781 l 201 781 l 222 738 l 244 738 m 288 738 l 266 781 l 244 781 l 266 738 l 288 738 m 331 738 l 309 781 l 288 781 l 309 738 l 331 738 m 374 738 l 353 781 l 331 781 l 353 738 l 374 738 m 418 738 l 396 781 l 374 781 l 396 738 l 418 738 m 461 738 l 439 781 l 418 781 l 439 738 l 461 738 m 483 738 l 483 781 l 461 781 l 483 738 m 92 825 l 92 846 q 76 840 83 846 q 71 825 71 833 l 92 825 m 49 0 l 49 825 q 61 854 49 842 q 92 868 73 868 l 526 868 l 526 825 l 570 781 l 613 781 l 613 760 l 635 738 l 656 738 l 656 477 l 613 477 l 613 434 l 526 434 l 526 347 l 179 347 l 179 0 l 49 0 z "},"Q":{"ha":688,"x_min":33,"x_max":640,"o":"m 467 43 l 467 87 l 206 87 l 206 43 l 467 43 m 98 178 q 110 182 104 178 q 114 195 114 187 q 110 208 114 202 q 98 212 104 212 q 84 208 90 212 q 80 195 80 202 q 84 182 80 187 q 98 178 90 178 m 98 351 q 110 355 104 351 q 114 369 114 361 q 110 381 114 376 q 98 385 104 385 q 84 381 90 385 q 80 369 80 376 q 84 355 80 361 q 98 351 90 351 m 467 174 l 467 651 q 453 681 467 669 q 423 694 441 694 l 206 694 l 163 651 l 163 174 l 467 174 m 597 174 l 597 217 l 553 217 l 553 694 l 510 694 l 553 673 l 510 651 l 553 629 l 510 608 l 553 586 l 510 564 l 553 543 l 510 521 l 553 499 l 510 477 l 553 456 l 510 434 l 553 412 l 510 391 l 553 369 l 510 347 l 553 326 l 510 304 l 553 282 l 510 260 l 553 239 l 510 217 l 553 195 l 510 174 l 597 174 m 228 738 l 206 781 l 206 738 l 228 738 m 271 738 l 250 781 l 228 781 l 250 738 l 271 738 m 315 738 l 293 781 l 271 781 l 293 738 l 315 738 m 358 738 l 336 781 l 315 781 l 336 738 l 358 738 m 401 738 l 380 781 l 358 781 l 380 738 l 401 738 m 445 738 l 423 781 l 401 781 l 423 738 l 445 738 m 467 738 l 467 781 l 445 781 l 467 738 m 206 868 l 206 890 q 190 883 197 890 q 184 868 184 876 l 206 868 m 553 -130 l 553 -87 l 467 -87 l 467 0 l 119 0 l 119 87 l 98 87 q 81 92 88 87 q 76 109 76 99 l 76 130 l 33 130 l 33 738 l 76 781 l 76 825 l 119 825 l 119 868 l 163 868 q 175 898 163 886 q 206 911 187 911 l 510 911 l 510 825 l 597 825 l 597 803 l 618 781 l 640 781 l 640 130 l 597 130 l 597 87 l 510 87 l 510 43 l 640 43 l 640 -130 l 553 -130 z "},"R":{"ha":701,"x_min":49,"x_max":656,"o":"m 548 91 q 560 95 555 91 q 564 109 564 100 q 560 121 564 115 q 548 125 555 125 q 534 121 540 125 q 530 109 530 115 q 534 95 530 100 q 548 91 540 91 m 548 87 q 532 92 538 87 q 526 109 526 99 q 532 123 526 117 q 548 130 538 130 l 526 130 l 526 87 l 548 87 m 570 87 l 570 130 l 548 130 q 563 123 556 130 q 570 109 570 117 q 563 92 570 99 q 548 87 556 87 l 570 87 m 483 521 l 483 651 q 469 681 483 669 q 439 694 457 694 l 179 694 l 179 521 l 483 521 m 570 564 l 570 694 l 526 694 l 570 673 l 526 651 l 570 629 l 526 608 l 570 586 l 526 564 l 570 564 m 548 742 q 560 746 555 742 q 564 760 564 751 q 560 772 564 766 q 548 776 555 776 q 534 772 540 776 q 530 760 530 766 q 534 746 530 751 q 548 742 540 742 m 157 738 l 136 781 l 136 738 l 157 738 m 201 738 l 179 781 l 157 781 l 179 738 l 201 738 m 244 738 l 222 781 l 201 781 l 222 738 l 244 738 m 288 738 l 266 781 l 244 781 l 266 738 l 288 738 m 331 738 l 309 781 l 288 781 l 309 738 l 331 738 m 374 738 l 353 781 l 331 781 l 353 738 l 374 738 m 418 738 l 396 781 l 374 781 l 396 738 l 418 738 m 461 738 l 439 781 l 418 781 l 439 738 l 461 738 m 483 738 l 483 781 l 461 781 l 483 738 m 92 825 l 92 846 q 76 840 83 846 q 71 825 71 833 l 92 825 m 49 0 l 49 825 q 61 854 49 842 q 92 868 73 868 l 526 868 l 526 825 l 613 825 l 613 760 l 635 738 l 656 738 l 656 477 l 613 477 l 613 434 l 526 434 l 526 347 l 439 347 l 439 304 l 483 304 l 483 260 l 526 260 l 526 174 l 656 174 l 656 0 l 483 0 l 483 130 l 396 130 l 396 174 l 353 174 l 353 217 l 266 217 l 266 347 l 222 347 l 179 304 l 179 0 l 49 0 z "},"S":{"ha":689,"x_min":41,"x_max":648,"o":"m 540 91 q 552 95 547 91 q 556 109 556 100 q 552 121 556 115 q 540 125 547 125 q 526 121 532 125 q 522 109 522 115 q 526 95 522 100 q 540 91 532 91 m 475 87 l 475 130 l 214 130 l 214 87 l 475 87 m 540 87 q 524 92 530 87 q 518 109 518 99 q 524 123 518 117 q 540 130 530 130 l 518 130 l 518 87 l 540 87 m 562 87 l 562 130 l 540 130 q 555 123 548 130 q 562 109 562 117 q 555 92 562 99 q 540 87 548 87 l 562 87 m 562 174 l 562 304 l 518 304 l 562 282 l 518 260 l 562 239 l 518 217 l 562 195 l 518 174 l 562 174 m 605 608 l 605 651 l 562 651 l 562 694 l 518 694 l 518 608 l 605 608 m 236 738 l 214 781 l 214 738 l 236 738 m 279 738 l 258 781 l 236 781 l 258 738 l 279 738 m 323 738 l 301 781 l 279 781 l 301 738 l 323 738 m 366 738 l 345 781 l 323 781 l 345 738 l 366 738 m 410 738 l 388 781 l 366 781 l 388 738 l 410 738 m 453 738 l 431 781 l 410 781 l 431 738 l 453 738 m 475 738 l 475 781 l 453 781 l 475 738 m 171 825 l 171 846 q 155 840 161 846 q 149 825 149 833 l 171 825 m 127 0 l 127 43 l 106 43 q 90 49 96 43 q 84 65 84 56 l 84 130 l 41 130 l 41 260 l 171 260 l 171 174 l 475 174 l 475 347 l 127 347 l 127 434 l 84 434 l 84 477 l 41 477 l 41 694 l 84 738 l 84 825 l 127 825 q 140 854 127 842 q 171 868 152 868 l 518 868 l 518 825 l 562 781 l 605 781 l 605 760 l 627 738 l 648 738 l 648 564 l 475 564 l 475 651 q 461 681 475 669 q 431 694 449 694 l 171 694 l 171 564 l 214 564 l 214 521 l 518 521 l 518 434 l 605 434 l 605 391 l 648 391 l 648 130 l 605 130 l 605 65 l 583 43 l 518 43 l 518 0 l 127 0 z "},"T":{"ha":734,"x_min":20,"x_max":715,"o":"m 129 738 l 107 781 l 107 738 l 129 738 m 172 738 l 151 781 l 129 781 l 151 738 l 172 738 m 216 738 l 194 781 l 172 781 l 194 738 l 216 738 m 259 738 l 237 781 l 216 781 l 237 738 l 259 738 m 281 738 l 281 781 l 259 781 l 281 738 m 585 738 l 585 781 l 411 781 l 411 738 l 585 738 m 368 43 l 368 825 l 324 825 l 324 43 l 368 43 m 64 825 l 64 846 q 49 840 56 846 q 42 825 42 833 l 64 825 m 281 0 l 281 694 l 64 694 l 64 781 l 20 781 l 20 825 q 34 854 20 842 q 64 868 46 868 l 671 868 l 671 846 l 693 825 l 715 825 l 715 781 l 671 781 l 671 694 l 454 694 l 454 0 l 281 0 z "},"U":{"ha":772,"x_min":42,"x_max":736,"o":"m 237 87 l 216 130 l 216 87 l 237 87 m 281 87 l 259 130 l 237 130 l 259 87 l 281 87 m 324 87 l 302 130 l 281 130 l 302 87 l 324 87 m 368 87 l 346 130 l 324 130 l 346 87 l 368 87 m 411 87 l 389 130 l 368 130 l 389 87 l 411 87 m 454 87 l 433 130 l 411 130 l 433 87 l 454 87 m 498 87 l 476 130 l 454 130 l 476 87 l 498 87 m 519 87 l 519 130 l 498 130 l 519 87 m 628 438 q 640 442 635 438 q 644 456 644 448 q 640 468 644 463 q 628 472 635 472 q 614 468 620 472 q 610 456 610 463 q 614 442 610 448 q 628 438 620 438 m 585 481 q 597 486 591 481 q 601 499 601 491 q 597 511 601 506 q 585 515 591 515 q 571 511 576 515 q 567 499 567 506 q 571 486 567 491 q 585 481 576 481 m 151 655 q 163 659 157 655 q 167 673 167 665 q 163 685 167 680 q 151 689 157 689 q 137 685 142 689 q 133 673 133 680 q 137 659 133 665 q 151 655 142 655 m 585 655 q 597 659 591 655 q 601 673 601 665 q 597 685 601 680 q 585 689 591 689 q 571 685 576 689 q 567 673 567 680 q 571 659 567 665 q 585 655 576 655 m 85 825 l 85 846 q 71 840 77 846 q 64 825 64 833 l 85 825 m 172 0 l 172 43 l 151 43 q 134 49 141 43 q 129 65 129 56 l 129 130 l 42 130 l 42 825 q 56 854 42 842 q 85 868 68 868 l 216 868 l 216 174 l 519 174 l 519 868 l 606 868 l 606 911 l 693 911 l 693 890 l 715 868 l 736 868 l 736 825 l 693 825 l 693 130 l 606 130 l 606 65 l 585 43 l 563 43 l 563 0 l 172 0 z "},"V":{"ha":761,"x_min":37,"x_max":731,"o":"m 275 91 q 288 95 282 91 q 292 109 292 100 q 288 121 292 115 q 275 125 282 125 q 262 121 267 125 q 258 109 258 115 q 262 95 258 100 q 275 91 267 91 m 362 91 q 374 95 369 91 q 378 109 378 100 q 374 121 378 115 q 362 125 369 125 q 349 121 354 125 q 345 109 345 115 q 349 95 345 100 q 362 91 354 91 m 275 178 q 288 182 282 178 q 292 195 292 187 q 288 208 292 202 q 275 212 282 212 q 262 208 267 212 q 258 195 258 202 q 262 182 258 187 q 275 178 267 178 m 80 825 l 80 846 q 65 840 72 846 q 58 825 58 833 l 80 825 m 297 0 l 297 43 l 210 43 l 210 130 l 167 130 l 167 174 l 145 174 q 129 179 136 174 q 123 195 123 186 l 123 217 l 80 217 l 80 260 l 37 260 l 37 825 q 50 854 37 842 q 80 868 62 868 l 210 868 l 210 260 l 340 260 l 340 174 l 427 174 l 427 260 l 514 260 l 514 868 l 601 868 l 601 911 l 688 911 l 688 890 l 709 868 l 731 868 l 731 825 l 688 825 l 688 217 l 601 217 l 601 195 l 579 174 l 557 174 l 557 130 l 471 130 l 471 0 l 297 0 z "},"W":{"ha":779,"x_min":45,"x_max":739,"o":"m 631 134 q 643 138 637 134 q 647 152 647 144 q 643 164 647 159 q 631 168 637 168 q 617 164 623 168 q 613 152 613 159 q 617 138 613 144 q 631 134 623 134 m 631 264 q 643 269 637 264 q 647 282 647 274 q 643 294 647 289 q 631 298 637 298 q 617 294 623 298 q 613 282 613 289 q 617 269 613 274 q 631 264 623 264 m 587 351 q 600 355 594 351 q 604 369 604 361 q 600 381 604 376 q 587 385 594 385 q 574 381 579 385 q 570 369 570 376 q 574 355 570 361 q 587 351 579 351 m 631 481 q 643 486 637 481 q 647 499 647 491 q 643 511 647 506 q 631 515 637 515 q 617 511 623 515 q 613 499 613 506 q 617 486 613 491 q 631 481 623 481 m 631 742 q 643 746 637 742 q 647 760 647 751 q 643 772 647 766 q 631 776 637 776 q 617 772 623 776 q 613 760 613 766 q 617 746 613 751 q 631 742 623 742 m 132 825 l 132 846 q 115 840 122 846 q 110 825 110 833 l 132 825 m 45 0 l 45 825 l 88 825 q 100 854 88 842 q 132 868 113 868 l 218 868 l 218 304 l 305 304 l 305 391 l 479 391 l 479 260 l 522 260 l 522 868 l 609 868 l 609 911 l 696 911 l 696 890 l 718 868 l 739 868 l 739 825 l 696 825 l 696 0 l 522 0 l 522 130 l 435 130 l 435 174 l 392 174 l 392 217 l 349 217 l 349 130 l 218 130 l 218 0 l 45 0 z "},"X":{"ha":696,"x_min":47,"x_max":655,"o":"m 568 43 l 568 174 l 525 174 l 568 152 l 525 130 l 568 109 l 525 87 l 568 65 l 525 43 l 568 43 m 547 612 q 559 616 553 612 q 563 629 563 621 q 559 642 563 636 q 547 646 553 646 q 533 642 538 646 q 529 629 529 636 q 533 616 529 621 q 547 612 538 612 m 568 694 l 568 825 l 525 825 l 525 694 l 568 694 m 91 825 l 91 846 q 75 840 81 846 q 69 825 69 833 l 91 825 m 47 0 l 47 260 l 91 260 l 91 304 l 134 304 l 134 391 l 221 391 l 221 477 l 134 477 l 134 564 l 47 564 l 47 825 q 60 854 47 842 q 91 868 72 868 l 178 868 l 178 694 l 221 694 l 221 608 l 308 608 l 308 564 l 395 564 l 395 608 l 481 608 l 481 868 l 655 868 l 655 564 l 568 564 l 568 477 l 481 477 l 481 391 l 525 391 l 525 304 l 612 304 l 612 260 l 655 260 l 655 0 l 481 0 l 481 217 l 395 217 l 395 304 l 308 304 l 308 217 l 221 217 l 221 174 l 178 174 l 178 0 l 47 0 z "},"Y":{"ha":735,"x_min":22,"x_max":716,"o":"m 369 43 l 369 434 l 326 434 l 369 412 l 326 391 l 369 369 l 326 347 l 369 326 l 326 304 l 369 282 l 326 260 l 369 239 l 326 217 l 369 195 l 326 174 l 369 152 l 326 130 l 369 109 l 326 87 l 369 65 l 326 43 l 369 43 m 65 825 l 65 846 q 50 840 57 846 q 43 825 43 833 l 65 825 m 282 0 l 282 434 l 195 434 l 195 477 l 152 477 l 152 564 l 65 564 l 65 651 l 22 651 l 22 825 q 35 854 22 842 q 65 868 47 868 l 195 868 l 195 608 l 326 608 l 326 521 l 369 521 l 369 564 l 412 564 l 412 608 l 499 608 l 499 868 l 673 868 l 673 716 l 694 694 l 716 694 l 716 651 l 673 651 l 673 564 l 543 564 l 543 477 l 456 477 l 456 0 l 282 0 z "},"Z":{"ha":680,"x_min":47,"x_max":655,"o":"m 612 87 l 612 130 l 134 130 l 134 87 l 612 87 m 547 612 q 559 616 553 612 q 563 629 563 621 q 559 642 563 636 q 547 646 553 646 q 533 642 538 646 q 529 629 529 636 q 533 616 529 621 q 547 612 538 612 m 113 738 l 91 781 l 91 738 l 113 738 m 156 738 l 134 781 l 113 781 l 134 738 l 156 738 m 199 738 l 178 781 l 156 781 l 178 738 l 199 738 m 243 738 l 221 781 l 199 781 l 221 738 l 243 738 m 286 738 l 264 781 l 243 781 l 264 738 l 286 738 m 330 738 l 308 781 l 286 781 l 308 738 l 330 738 m 373 738 l 351 781 l 330 781 l 351 738 l 373 738 m 416 738 l 395 781 l 373 781 l 395 738 l 416 738 m 460 738 l 438 781 l 416 781 l 438 738 l 460 738 m 503 738 l 481 781 l 460 781 l 481 738 l 503 738 m 568 694 l 568 781 l 547 781 l 568 738 l 547 738 l 525 781 l 503 781 l 525 738 l 525 694 l 547 694 l 525 738 l 547 738 l 568 694 m 91 825 l 91 846 q 75 840 81 846 q 69 825 69 833 l 91 825 m 47 0 l 47 260 l 91 260 l 91 304 l 134 304 l 134 391 l 221 391 l 221 434 l 264 434 l 264 521 l 351 521 l 351 564 l 395 564 l 395 608 l 481 608 l 481 651 q 468 681 481 669 q 438 694 456 694 l 47 694 l 47 825 q 60 854 47 842 q 91 868 72 868 l 655 868 l 655 564 l 568 564 l 568 477 l 481 477 l 481 434 l 438 434 l 438 347 l 351 347 l 351 304 l 308 304 l 308 217 l 221 217 l 221 174 l 655 174 l 655 0 l 47 0 z "},"[":{"ha":354,"x_min":47,"x_max":308,"o":"m 221 87 l 221 130 l 134 130 l 134 87 l 221 87 m 113 525 q 125 529 119 525 q 129 543 129 534 q 125 555 129 549 q 113 559 119 559 q 99 555 104 559 q 95 543 95 549 q 99 529 95 534 q 113 525 104 525 m 156 738 l 134 781 l 134 738 l 156 738 m 199 738 l 178 781 l 156 781 l 178 738 l 199 738 m 243 738 l 221 781 l 199 781 l 221 738 l 243 738 m 264 738 l 264 781 l 243 781 l 264 738 m 91 825 l 91 846 q 75 840 81 846 q 69 825 69 833 l 91 825 m 47 0 l 47 825 q 60 854 47 842 q 91 868 72 868 l 264 868 l 264 825 l 308 825 l 308 694 l 178 694 l 178 174 l 308 174 l 308 22 l 286 0 l 47 0 z "},"\\":{"ha":240,"x_min":47,"x_max":221,"o":"m 113 47 q 125 52 119 47 q 129 65 129 57 q 125 77 129 72 q 113 81 119 81 q 99 77 104 81 q 95 65 95 72 q 99 52 95 57 q 113 47 104 47 m 113 43 q 96 49 103 43 q 91 65 91 56 q 96 80 91 73 q 113 87 103 87 l 91 87 l 91 43 l 113 43 m 134 43 l 134 87 l 113 87 q 127 80 121 87 q 134 65 134 73 q 127 49 134 56 q 113 43 121 43 l 134 43 m 113 178 q 125 182 119 178 q 129 195 129 187 q 125 208 129 202 q 113 212 119 212 q 99 208 104 212 q 95 195 95 202 q 99 182 95 187 q 113 178 104 178 m 113 351 q 125 355 119 351 q 129 369 129 361 q 125 381 129 376 q 113 385 119 385 q 99 381 104 385 q 95 369 95 376 q 99 355 95 361 q 113 351 104 351 m 113 481 q 125 486 119 481 q 129 499 129 491 q 125 511 129 506 q 113 515 119 515 q 99 511 104 515 q 95 499 95 506 q 99 486 95 491 q 113 481 104 481 m 113 568 q 125 572 119 568 q 129 586 129 578 q 125 598 129 593 q 113 602 119 602 q 99 598 104 602 q 95 586 95 593 q 99 572 95 578 q 113 568 104 568 m 113 699 q 125 703 119 699 q 129 716 129 708 q 125 728 129 723 q 113 732 119 732 q 99 728 104 732 q 95 716 95 723 q 99 703 95 708 q 113 699 104 699 m 113 785 q 125 789 119 785 q 129 803 129 795 q 125 815 129 810 q 113 819 119 819 q 99 815 104 819 q 95 803 95 810 q 99 789 95 795 q 113 785 104 785 m 91 -130 l 91 -87 l 47 -87 l 47 911 l 91 911 l 91 955 l 221 955 l 221 911 l 178 911 l 178 -109 l 156 -130 l 91 -130 z "},"]":{"ha":346,"x_min":37,"x_max":297,"o":"m 102 87 l 80 130 l 80 87 l 102 87 m 145 87 l 123 130 l 102 130 l 123 87 l 145 87 m 167 87 l 167 130 l 145 130 l 167 87 m 232 134 q 244 138 239 134 q 248 152 248 144 q 244 164 248 159 q 232 168 239 168 q 218 164 224 168 q 214 152 214 159 q 218 138 214 144 q 232 134 224 134 m 232 130 q 216 136 222 130 q 210 152 210 142 q 216 167 210 160 q 232 174 222 174 l 210 174 l 210 130 l 232 130 m 254 130 l 254 174 l 232 174 q 247 167 240 174 q 254 152 254 160 q 247 136 254 142 q 232 130 240 130 l 254 130 m 232 308 q 244 312 239 308 q 248 326 248 317 q 244 338 248 332 q 232 342 239 342 q 218 338 224 342 q 214 326 214 332 q 218 312 214 317 q 232 308 224 308 m 189 438 q 201 442 195 438 q 205 456 205 448 q 201 468 205 463 q 189 472 195 472 q 175 468 180 472 q 171 456 171 463 q 175 442 171 448 q 189 438 180 438 m 232 525 q 244 529 239 525 q 248 543 248 534 q 244 555 248 549 q 232 559 239 559 q 218 555 224 559 q 214 543 214 549 q 218 529 214 534 q 232 525 224 525 m 210 651 l 210 694 l 254 694 l 254 738 l 210 738 l 210 694 l 167 694 l 167 651 l 210 651 m 254 825 l 254 846 q 237 840 244 846 q 232 825 232 833 l 254 825 m 37 0 l 37 174 l 123 174 l 123 694 l 37 694 l 37 825 l 210 825 q 222 854 210 842 q 254 868 235 868 l 297 868 l 297 22 l 275 0 l 37 0 z "},"^":{"ha":454,"x_min":26,"x_max":416,"o":"m 308 568 q 320 572 315 568 q 324 586 324 578 q 320 598 324 593 q 308 602 315 602 q 294 598 300 602 q 290 586 290 593 q 294 572 290 578 q 308 568 300 568 m 286 781 l 286 803 q 270 796 277 803 q 264 781 264 789 l 286 781 m 26 521 l 26 694 l 113 694 l 113 738 l 156 738 l 156 781 l 243 781 q 255 811 243 799 q 286 825 267 825 l 330 825 l 330 738 l 373 738 l 373 716 l 395 694 l 416 694 l 416 543 l 395 521 l 243 521 l 243 608 l 199 608 l 199 521 l 26 521 z "},"_":{"ha":697,"x_min":47,"x_max":655,"o":"m 113 87 l 91 130 l 91 87 l 113 87 m 156 87 l 134 130 l 113 130 l 134 87 l 156 87 m 199 87 l 178 130 l 156 130 l 178 87 l 199 87 m 243 87 l 221 130 l 199 130 l 221 87 l 243 87 m 286 87 l 264 130 l 243 130 l 264 87 l 286 87 m 330 87 l 308 130 l 286 130 l 308 87 l 330 87 m 373 87 l 351 130 l 330 130 l 351 87 l 373 87 m 416 87 l 395 130 l 373 130 l 395 87 l 416 87 m 460 87 l 438 130 l 416 130 l 438 87 l 460 87 m 503 87 l 481 130 l 460 130 l 481 87 l 503 87 m 547 87 l 525 130 l 503 130 l 525 87 l 547 87 m 568 87 l 568 130 l 547 130 l 568 87 m 47 0 l 47 174 l 612 174 l 612 152 l 633 130 l 655 130 l 655 65 l 633 43 l 612 43 l 612 0 l 47 0 z "},"`":{"ha":240,"x_min":47,"x_max":221,"o":"m 113 481 q 125 486 119 481 q 129 499 129 491 q 125 511 129 506 q 113 515 119 515 q 99 511 104 515 q 95 499 95 506 q 99 486 95 491 q 113 481 104 481 m 47 434 l 47 694 l 178 694 l 178 586 l 199 564 l 221 564 l 221 521 l 178 521 l 178 456 l 156 434 l 47 434 z "},"a":{"ha":730,"x_min":35,"x_max":686,"o":"m 274 87 l 252 130 l 252 87 l 274 87 m 317 87 l 296 130 l 274 130 l 296 87 l 317 87 m 361 87 l 339 130 l 317 130 l 339 87 l 361 87 m 382 87 l 382 130 l 361 130 l 382 87 m 600 43 l 600 130 l 556 130 l 556 43 l 600 43 m 426 174 l 426 260 l 513 260 l 513 434 q 499 464 513 452 q 469 477 487 477 l 209 477 l 209 174 l 426 174 m 600 217 l 600 477 l 556 477 l 600 456 l 556 434 l 600 412 l 556 391 l 600 369 l 556 347 l 600 326 l 556 304 l 600 282 l 556 260 l 600 239 l 556 217 l 600 217 m 252 608 l 252 629 q 236 623 243 629 q 231 608 231 616 l 252 608 m 165 0 l 165 43 l 144 43 q 127 49 134 43 q 122 65 122 56 l 122 130 l 35 130 l 35 477 l 79 477 l 79 521 l 122 521 l 165 564 l 165 608 l 209 608 q 221 637 209 625 q 252 651 233 651 l 556 651 l 556 564 l 643 564 l 643 543 l 665 521 l 686 521 l 686 0 l 513 0 l 513 43 l 469 43 l 469 0 l 165 0 z "},"b":{"ha":716,"x_min":47,"x_max":699,"o":"m 590 91 q 602 95 597 91 q 606 109 606 100 q 602 121 606 115 q 590 125 597 125 q 576 121 582 125 q 572 109 572 115 q 576 95 572 100 q 590 91 582 91 m 416 87 l 395 130 l 395 87 l 416 87 m 460 87 l 438 130 l 416 130 l 438 87 l 460 87 m 503 87 l 481 130 l 460 130 l 481 87 l 503 87 m 525 87 l 525 130 l 503 130 l 525 87 m 590 87 q 574 92 581 87 q 568 109 568 99 q 574 123 568 117 q 590 130 581 130 l 568 130 l 568 87 l 590 87 m 612 87 l 612 130 l 590 130 q 605 123 598 130 q 612 109 612 117 q 605 92 612 99 q 590 87 598 87 l 612 87 m 612 174 l 612 434 l 568 434 l 612 412 l 568 391 l 612 369 l 568 347 l 612 326 l 568 304 l 612 282 l 568 260 l 612 239 l 568 217 l 612 195 l 568 174 l 612 174 m 525 174 l 525 434 q 511 464 525 452 q 481 477 499 477 l 221 477 l 221 260 l 351 260 l 351 174 l 525 174 m 134 868 l 134 890 q 118 883 125 890 q 113 868 113 876 l 134 868 m 47 0 l 47 868 l 91 868 q 103 898 91 886 q 134 911 115 911 l 178 911 l 178 868 l 221 868 l 221 651 l 568 651 l 568 586 l 590 564 l 612 564 l 655 521 l 699 521 l 699 130 l 655 130 l 655 65 l 633 43 l 568 43 l 568 0 l 308 0 l 308 43 l 264 43 l 264 130 l 221 87 l 221 0 l 47 0 z "},"c":{"ha":724,"x_min":37,"x_max":688,"o":"m 579 91 q 591 95 586 91 q 595 109 595 100 q 591 121 595 115 q 579 125 586 125 q 566 121 571 125 q 562 109 562 115 q 566 95 562 100 q 579 91 571 91 m 275 87 l 254 130 l 254 87 l 275 87 m 319 87 l 297 130 l 275 130 l 297 87 l 319 87 m 362 87 l 340 130 l 319 130 l 340 87 l 362 87 m 406 87 l 384 130 l 362 130 l 384 87 l 406 87 m 449 87 l 427 130 l 406 130 l 427 87 l 449 87 m 492 87 l 471 130 l 449 130 l 471 87 l 492 87 m 514 87 l 514 130 l 492 130 l 514 87 m 579 87 q 563 92 570 87 q 557 109 557 99 q 563 123 557 117 q 579 130 570 130 l 557 130 l 557 87 l 579 87 m 601 87 l 601 130 l 579 130 q 594 123 587 130 q 601 109 601 117 q 594 92 601 99 q 579 87 587 87 l 601 87 m 579 178 q 591 182 586 178 q 595 195 595 187 q 591 208 595 202 q 579 212 586 212 q 566 208 571 212 q 562 195 562 202 q 566 182 562 187 q 579 178 571 178 m 601 391 l 601 477 l 557 477 l 601 456 l 557 434 l 601 412 l 557 391 l 601 391 m 254 608 l 254 629 q 237 623 244 629 q 232 608 232 616 l 254 608 m 167 0 l 167 43 l 145 43 q 129 49 136 43 q 123 65 123 56 l 123 130 l 37 130 l 37 521 l 123 521 l 167 564 l 167 608 l 210 608 q 222 637 210 625 q 254 651 235 651 l 557 651 l 557 586 l 579 564 l 601 564 l 644 521 l 688 521 l 688 347 l 514 347 l 514 434 q 500 464 514 452 q 471 477 488 477 l 210 477 l 210 174 l 514 174 l 514 260 l 688 260 l 688 130 l 644 130 l 644 65 l 623 43 l 557 43 l 557 0 l 167 0 z "},"d":{"ha":715,"x_min":15,"x_max":666,"o":"m 254 87 l 232 130 l 232 87 l 254 87 m 297 87 l 275 130 l 254 130 l 275 87 l 297 87 m 340 87 l 319 130 l 297 130 l 319 87 l 340 87 m 362 87 l 362 130 l 340 130 l 362 87 m 579 43 l 579 130 l 536 130 l 536 43 l 579 43 m 406 174 l 406 260 l 492 260 l 492 434 q 479 464 492 452 q 449 477 467 477 l 232 477 l 232 434 l 189 434 l 189 174 l 406 174 m 579 217 l 579 521 l 536 521 l 579 499 l 536 477 l 579 456 l 536 434 l 579 412 l 536 391 l 579 369 l 536 347 l 579 326 l 536 304 l 579 282 l 536 260 l 579 239 l 536 217 l 579 217 m 623 564 l 623 608 l 536 608 l 536 564 l 623 564 m 232 608 l 232 629 q 216 623 222 629 q 210 608 210 616 l 232 608 m 579 651 l 579 825 l 536 825 l 536 651 l 579 651 m 145 0 l 145 43 l 123 43 q 107 49 114 43 q 102 65 102 56 l 102 130 l 15 130 l 15 477 l 58 477 l 58 521 l 102 521 l 145 564 l 145 608 l 189 608 q 201 637 189 625 q 232 651 213 651 l 492 651 l 492 868 l 579 868 l 579 911 l 666 911 l 666 0 l 492 0 l 492 43 l 449 43 l 449 0 l 145 0 z "},"e":{"ha":720,"x_min":37,"x_max":688,"o":"m 275 87 l 254 130 l 254 87 l 275 87 m 319 87 l 297 130 l 275 130 l 297 87 l 319 87 m 362 87 l 340 130 l 319 130 l 340 87 l 362 87 m 406 87 l 384 130 l 362 130 l 384 87 l 406 87 m 449 87 l 427 130 l 406 130 l 427 87 l 449 87 m 492 87 l 471 130 l 449 130 l 471 87 l 492 87 m 514 87 l 514 130 l 492 130 l 514 87 m 623 308 q 635 312 629 308 q 639 326 639 317 q 635 338 639 332 q 623 342 629 342 q 609 338 614 342 q 605 326 605 332 q 609 312 605 317 q 623 308 614 308 m 514 391 l 514 434 q 500 464 514 452 q 471 477 488 477 l 210 477 l 210 391 l 514 391 m 601 391 l 601 477 l 557 477 l 601 456 l 557 434 l 601 412 l 557 391 l 601 391 m 254 608 l 254 629 q 237 623 244 629 q 232 608 232 616 l 254 608 m 167 0 l 167 43 l 145 43 q 129 49 136 43 q 123 65 123 56 l 123 130 l 37 130 l 37 521 l 123 521 l 167 564 l 167 608 l 210 608 q 222 637 210 625 q 254 651 235 651 l 557 651 l 557 586 l 579 564 l 601 564 l 644 521 l 688 521 l 688 217 l 210 217 l 210 174 l 557 174 l 557 0 l 167 0 z "},"f":{"ha":557,"x_min":22,"x_max":543,"o":"m 499 738 l 499 781 l 456 781 l 456 825 l 326 825 l 326 738 l 499 738 m 239 825 l 239 846 q 222 840 229 846 q 217 825 217 833 l 239 825 m 109 0 l 109 477 l 22 477 l 22 564 l 65 608 l 109 608 l 109 738 l 152 738 l 152 781 l 195 781 l 195 825 q 208 854 195 842 q 239 868 220 868 l 282 868 l 282 911 l 499 911 l 499 868 l 543 868 l 543 694 l 282 694 l 282 608 l 412 608 l 412 477 l 282 477 l 282 0 l 109 0 z "},"g":{"ha":728,"x_min":31,"x_max":682,"o":"m 574 -81 q 586 -77 581 -81 q 590 -65 590 -72 q 586 -52 590 -57 q 574 -47 581 -47 q 560 -52 566 -47 q 556 -65 556 -57 q 560 -77 556 -72 q 574 -81 566 -81 m 509 -87 l 509 0 l 205 0 l 205 -87 l 509 -87 m 574 47 q 586 52 581 47 q 590 65 590 57 q 586 77 590 72 q 574 81 581 81 q 560 77 566 81 q 556 65 556 72 q 560 52 556 57 q 574 47 566 47 m 574 43 q 557 49 564 43 q 552 65 552 56 q 557 80 552 73 q 574 87 564 87 l 552 87 l 552 43 l 574 43 m 595 43 l 595 87 l 574 87 q 589 80 582 87 q 595 65 595 73 q 589 49 595 56 q 574 43 582 43 l 595 43 m 595 174 l 595 521 l 465 521 l 465 477 l 552 477 l 552 217 l 248 217 l 248 174 l 595 174 m 509 260 l 509 434 l 422 434 l 422 564 l 205 564 l 205 260 l 509 260 m 574 612 q 586 616 581 612 q 590 629 590 621 q 586 642 590 636 q 574 646 581 646 q 560 642 566 646 q 556 629 556 636 q 560 616 556 621 q 574 612 566 612 m 270 608 l 248 651 l 248 608 l 270 608 m 313 608 l 292 651 l 270 651 l 292 608 l 313 608 m 357 608 l 335 651 l 313 651 l 335 608 l 357 608 m 378 608 l 378 651 l 357 651 l 378 608 m 248 694 l 248 716 q 232 709 239 716 q 227 694 227 703 l 248 694 m 205 -174 l 205 -130 l 161 -130 l 161 43 l 509 43 l 509 87 l 161 87 l 161 130 l 140 130 q 123 136 130 130 q 118 152 118 142 l 118 217 l 75 217 l 75 260 l 31 260 l 31 608 l 118 608 l 118 651 l 161 694 l 205 694 q 217 724 205 712 q 248 738 229 738 l 422 738 l 465 694 l 595 694 l 595 738 l 682 738 l 682 -43 l 639 -43 l 639 -109 l 617 -130 l 552 -130 l 552 -174 l 205 -174 z "},"h":{"ha":757,"x_min":47,"x_max":742,"o":"m 612 43 l 612 434 l 568 434 l 612 412 l 568 391 l 612 369 l 568 347 l 612 326 l 568 304 l 612 282 l 568 260 l 612 239 l 568 217 l 612 195 l 568 174 l 612 152 l 568 130 l 612 109 l 568 87 l 612 65 l 568 43 l 612 43 m 178 43 l 178 521 l 134 521 l 134 43 l 178 43 m 156 568 q 168 572 163 568 q 172 586 172 578 q 168 598 172 593 q 156 602 163 602 q 142 598 148 602 q 138 586 138 593 q 142 572 138 578 q 156 568 148 568 m 178 651 l 178 825 l 134 825 l 134 651 l 178 651 m 91 868 l 91 890 q 76 883 83 890 q 69 868 69 876 l 91 868 m 47 0 l 47 868 q 61 898 47 886 q 91 911 73 911 l 134 911 l 178 868 l 221 868 l 221 651 l 568 651 l 568 608 l 612 564 l 655 564 l 655 521 l 742 521 l 742 434 l 699 434 l 699 0 l 525 0 l 525 434 q 511 464 525 452 q 481 477 499 477 l 221 477 l 221 0 l 47 0 z "},"i":{"ha":241,"x_min":46,"x_max":220,"o":"m 46 0 l 46 608 l 176 608 l 176 0 l 46 0 m 133 694 l 133 781 l 90 781 l 133 760 l 90 738 l 133 716 l 90 694 l 133 694 m 133 825 l 133 846 q 117 840 123 846 q 111 825 111 833 l 133 825 m 46 651 l 46 825 l 90 825 q 102 854 90 842 q 133 868 114 868 l 176 868 l 220 825 l 220 781 l 176 781 l 176 651 l 46 651 z "},"j":{"ha":476,"x_min":11,"x_max":445,"o":"m 293 -125 q 305 -121 300 -125 q 309 -109 309 -115 q 305 -95 309 -100 q 293 -91 300 -91 q 279 -95 285 -91 q 275 -109 275 -100 q 279 -121 275 -115 q 293 -125 285 -125 m 76 -130 l 54 -87 l 54 -130 l 76 -130 m 119 -130 l 98 -87 l 76 -87 l 98 -130 l 119 -130 m 163 -130 l 141 -87 l 119 -87 l 141 -130 l 163 -130 m 206 -130 l 184 -87 l 163 -87 l 184 -130 l 206 -130 m 228 -130 l 228 -87 l 206 -87 l 228 -130 m 315 -43 l 315 0 l 358 0 l 358 43 l 315 43 l 315 608 l 271 608 l 271 -43 l 315 -43 m 11 -217 l 11 -43 l 228 -43 l 228 651 l 315 651 l 315 694 l 401 694 l 401 -87 l 358 -87 l 358 -152 l 336 -174 l 271 -174 l 271 -217 l 11 -217 m 358 781 l 358 868 l 271 868 l 271 781 l 358 781 m 358 911 l 358 933 q 342 926 349 933 q 336 911 336 920 l 358 911 m 228 738 l 228 911 l 315 911 q 327 941 315 929 q 358 955 339 955 l 401 955 l 401 911 l 445 911 l 445 868 l 401 868 l 401 738 l 228 738 z "},"k":{"ha":709,"x_min":47,"x_max":699,"o":"m 590 91 q 602 95 597 91 q 606 109 606 100 q 602 121 606 115 q 590 125 597 125 q 576 121 582 125 q 572 109 572 115 q 576 95 572 100 q 590 91 582 91 m 590 87 q 574 92 581 87 q 568 109 568 99 q 574 123 568 117 q 590 130 581 130 l 568 130 l 568 87 l 590 87 m 612 87 l 612 130 l 590 130 q 605 123 598 130 q 612 109 612 117 q 605 92 612 99 q 590 87 598 87 l 612 87 m 91 868 l 91 890 q 76 883 83 890 q 69 868 69 876 l 91 868 m 47 0 l 47 868 q 61 898 47 886 q 91 911 73 911 l 178 911 l 221 868 l 221 391 l 308 391 l 308 521 l 395 521 l 395 564 l 438 564 l 438 608 l 481 608 l 481 651 l 568 651 l 568 608 l 612 564 l 612 521 l 568 521 l 568 477 l 525 477 l 525 434 l 481 434 l 481 304 l 525 304 l 525 260 l 568 260 l 568 174 l 699 174 l 699 0 l 525 0 l 525 130 l 438 130 l 438 174 l 395 174 l 395 217 l 264 217 l 221 174 l 221 0 l 47 0 z "},"l":{"ha":317,"x_min":43,"x_max":304,"o":"m 109 178 q 121 182 115 178 q 125 195 125 187 q 121 208 125 202 q 109 212 115 212 q 95 208 100 212 q 91 195 91 202 q 95 182 91 187 q 109 178 100 178 m 109 655 q 121 659 115 655 q 125 673 125 665 q 121 685 125 680 q 109 689 115 689 q 95 685 100 689 q 91 673 91 680 q 95 659 91 665 q 109 655 100 655 m 87 825 l 87 846 q 71 840 77 846 q 65 825 65 833 l 87 825 m 130 0 l 130 43 l 87 43 l 87 130 l 43 130 l 43 825 q 56 854 43 842 q 87 868 68 868 l 130 868 l 130 825 l 174 825 l 174 174 l 304 174 l 304 0 l 130 0 z "},"m":{"ha":1004,"x_min":47,"x_max":959,"o":"m 178 43 l 178 391 l 134 391 l 134 43 l 178 43 m 156 434 l 134 477 l 134 434 l 156 434 m 199 434 l 178 477 l 156 477 l 178 434 l 199 434 m 243 434 l 221 477 l 199 477 l 221 434 l 243 434 m 264 434 l 264 477 l 243 477 l 264 434 m 872 43 l 872 477 l 829 477 l 872 456 l 829 434 l 872 412 l 829 391 l 872 369 l 829 347 l 872 326 l 829 304 l 872 282 l 829 260 l 872 239 l 829 217 l 872 195 l 829 174 l 872 152 l 829 130 l 872 109 l 829 87 l 872 65 l 829 43 l 872 43 m 156 525 q 168 529 163 525 q 172 543 172 534 q 168 555 172 549 q 156 559 163 559 q 142 555 148 559 q 138 543 138 549 q 142 529 138 534 q 156 525 148 525 m 91 608 l 91 629 q 76 623 83 629 q 69 608 69 616 l 91 608 m 47 0 l 47 608 q 61 637 47 625 q 91 651 73 651 l 134 651 l 134 608 l 221 608 l 221 521 l 264 521 l 264 564 l 308 564 l 308 608 l 351 608 l 351 651 l 438 651 l 438 608 l 481 608 l 481 564 l 568 564 l 568 608 l 612 608 l 612 651 l 829 651 l 829 564 l 872 564 l 916 521 l 959 521 l 959 0 l 785 0 l 785 477 l 612 477 l 612 0 l 438 0 l 438 477 l 395 477 l 351 434 l 351 347 l 221 347 l 221 0 l 47 0 z "},"n":{"ha":776,"x_min":47,"x_max":742,"o":"m 178 43 l 178 391 l 134 391 l 134 43 l 178 43 m 156 434 l 134 477 l 134 434 l 156 434 m 199 434 l 178 477 l 156 477 l 178 434 l 199 434 m 221 434 l 221 477 l 199 477 l 221 434 m 308 391 l 308 477 l 264 477 l 264 391 l 308 391 m 612 43 l 612 477 l 568 477 l 612 456 l 568 434 l 612 412 l 568 391 l 612 369 l 568 347 l 612 326 l 568 304 l 612 282 l 568 260 l 612 239 l 568 217 l 612 195 l 568 174 l 612 152 l 568 130 l 612 109 l 568 87 l 612 65 l 568 43 l 612 43 m 156 525 q 168 529 163 525 q 172 543 172 534 q 168 555 172 549 q 156 559 163 559 q 142 555 148 559 q 138 543 138 549 q 142 529 138 534 q 156 525 148 525 m 91 608 l 91 629 q 76 623 83 629 q 69 608 69 616 l 91 608 m 47 0 l 47 608 q 61 637 47 625 q 91 651 73 651 l 134 651 l 134 608 l 221 608 l 221 564 l 308 564 l 308 651 l 568 651 l 568 586 l 590 564 l 612 564 l 655 521 l 742 521 l 742 477 l 699 477 l 699 0 l 525 0 l 525 434 q 511 464 525 452 q 481 477 499 477 l 395 477 l 351 434 l 351 347 l 221 347 l 221 0 l 47 0 z "},"o":{"ha":726,"x_min":35,"x_max":686,"o":"m 274 87 l 252 130 l 252 87 l 274 87 m 317 87 l 296 130 l 274 130 l 296 87 l 317 87 m 361 87 l 339 130 l 317 130 l 339 87 l 361 87 m 404 87 l 382 130 l 361 130 l 382 87 l 404 87 m 448 87 l 426 130 l 404 130 l 426 87 l 448 87 m 491 87 l 469 130 l 448 130 l 469 87 l 491 87 m 513 87 l 513 130 l 491 130 l 513 87 m 513 174 l 513 434 q 499 464 513 452 q 469 477 487 477 l 209 477 l 209 174 l 513 174 m 600 174 l 600 477 l 556 477 l 600 456 l 556 434 l 600 412 l 556 391 l 600 369 l 556 347 l 600 326 l 556 304 l 600 282 l 556 260 l 600 239 l 556 217 l 600 195 l 556 174 l 600 174 m 252 608 l 252 629 q 236 623 243 629 q 231 608 231 616 l 252 608 m 165 0 l 165 43 l 144 43 q 127 49 134 43 q 122 65 122 56 l 122 130 l 35 130 l 35 477 l 79 477 l 79 521 l 122 521 l 165 564 l 165 608 l 209 608 q 221 637 209 625 q 252 651 233 651 l 556 651 l 556 586 l 578 564 l 600 564 l 643 521 l 686 521 l 686 130 l 643 130 l 643 109 l 621 87 l 600 87 l 600 43 l 556 43 l 556 0 l 165 0 z "},"p":{"ha":716,"x_min":47,"x_max":699,"o":"m 590 91 q 602 95 597 91 q 606 109 606 100 q 602 121 606 115 q 590 125 597 125 q 576 121 582 125 q 572 109 572 115 q 576 95 572 100 q 590 91 582 91 m 199 87 l 178 130 l 178 87 l 199 87 m 243 87 l 221 130 l 199 130 l 221 87 l 243 87 m 286 87 l 264 130 l 243 130 l 264 87 l 286 87 m 330 87 l 308 130 l 286 130 l 308 87 l 330 87 m 373 87 l 351 130 l 330 130 l 351 87 l 373 87 m 416 87 l 395 130 l 373 130 l 395 87 l 416 87 m 460 87 l 438 130 l 416 130 l 438 87 l 460 87 m 503 87 l 481 130 l 460 130 l 481 87 l 503 87 m 525 87 l 525 130 l 503 130 l 525 87 m 590 87 q 574 92 581 87 q 568 109 568 99 q 574 123 568 117 q 590 130 581 130 l 568 130 l 568 87 l 590 87 m 612 87 l 612 130 l 590 130 q 605 123 598 130 q 612 109 612 117 q 605 92 612 99 q 590 87 598 87 l 612 87 m 308 391 l 308 434 l 178 434 l 178 391 l 308 391 m 525 174 l 525 434 q 511 464 525 452 q 481 477 499 477 l 351 477 l 351 347 l 221 347 l 221 174 l 525 174 m 612 174 l 612 477 l 568 477 l 612 456 l 568 434 l 612 412 l 568 391 l 612 369 l 568 347 l 612 326 l 568 304 l 612 282 l 568 260 l 612 239 l 568 217 l 612 195 l 568 174 l 612 174 m 590 525 q 602 529 597 525 q 606 543 606 534 q 602 555 606 549 q 590 559 597 559 q 576 555 582 559 q 572 543 572 549 q 576 529 572 534 q 590 525 582 525 m 525 521 l 525 564 l 395 564 l 395 521 l 525 521 m 91 608 l 91 629 q 76 623 83 629 q 69 608 69 616 l 91 608 m 47 -260 l 47 608 q 61 637 47 625 q 91 651 73 651 l 178 651 l 178 608 l 221 608 l 221 521 l 264 521 l 264 608 l 351 608 l 351 651 l 568 651 l 568 629 l 590 608 l 612 608 l 655 564 l 655 521 l 699 521 l 699 130 l 655 130 l 655 65 l 633 43 l 568 43 l 568 0 l 264 0 l 221 -43 l 221 -217 l 178 -217 l 178 -260 l 47 -260 z "},"q":{"ha":715,"x_min":15,"x_max":666,"o":"m 579 -174 l 579 0 l 536 0 l 579 -22 l 536 -43 l 579 -65 l 536 -87 l 579 -109 l 536 -130 l 579 -152 l 536 -174 l 579 -174 m 579 87 l 579 434 l 449 434 l 449 391 l 536 391 l 536 130 l 232 130 l 232 87 l 579 87 m 492 174 l 492 347 l 406 347 l 406 477 l 189 477 l 189 174 l 492 174 m 557 525 q 570 529 564 525 q 574 543 574 534 q 570 555 574 549 q 557 559 564 559 q 544 555 549 559 q 540 543 540 549 q 544 529 540 534 q 557 525 549 525 m 254 521 l 232 564 l 232 521 l 254 521 m 297 521 l 275 564 l 254 564 l 275 521 l 297 521 m 340 521 l 319 564 l 297 564 l 319 521 l 340 521 m 362 521 l 362 564 l 340 564 l 362 521 m 232 608 l 232 629 q 216 623 222 629 q 210 608 210 616 l 232 608 m 579 -260 l 579 -217 l 492 -217 l 492 0 l 145 0 l 145 43 l 123 43 q 107 49 114 43 q 102 65 102 56 l 102 130 l 15 130 l 15 521 l 102 521 l 102 564 l 145 608 l 189 608 q 201 637 189 625 q 232 651 213 651 l 406 651 l 406 608 l 579 608 l 579 651 l 666 651 l 666 -260 l 579 -260 z "},"r":{"ha":746,"x_min":47,"x_max":742,"o":"m 178 43 l 178 391 l 134 391 l 134 43 l 178 43 m 156 434 l 134 477 l 134 434 l 156 434 m 199 434 l 178 477 l 156 477 l 178 434 l 199 434 m 221 434 l 221 477 l 199 477 l 221 434 m 308 391 l 308 477 l 264 477 l 264 391 l 308 391 m 612 391 l 612 477 l 568 477 l 612 456 l 568 434 l 612 412 l 568 391 l 612 391 m 156 525 q 168 529 163 525 q 172 543 172 534 q 168 555 172 549 q 156 559 163 559 q 142 555 148 559 q 138 543 138 549 q 142 529 138 534 q 156 525 148 525 m 91 608 l 91 629 q 76 623 83 629 q 69 608 69 616 l 91 608 m 47 0 l 47 608 q 61 637 47 625 q 91 651 73 651 l 134 651 l 134 608 l 221 608 l 221 564 l 308 564 l 308 651 l 568 651 l 568 586 l 590 564 l 612 564 l 655 521 l 742 521 l 742 477 l 699 477 l 699 347 l 525 347 l 525 434 q 511 464 525 452 q 481 477 499 477 l 351 477 l 351 347 l 221 347 l 221 0 l 47 0 z "},"s":{"ha":766,"x_min":38,"x_max":732,"o":"m 581 91 q 593 95 587 91 q 597 109 597 100 q 593 121 597 115 q 581 125 587 125 q 567 121 572 125 q 563 109 563 115 q 567 95 563 100 q 581 91 572 91 m 146 87 l 125 130 l 125 87 l 146 87 m 190 87 l 168 130 l 146 130 l 168 87 l 190 87 m 233 87 l 212 130 l 190 130 l 212 87 l 233 87 m 277 87 l 255 130 l 233 130 l 255 87 l 277 87 m 320 87 l 298 130 l 277 130 l 298 87 l 320 87 m 363 87 l 342 130 l 320 130 l 342 87 l 363 87 m 407 87 l 385 130 l 363 130 l 385 87 l 407 87 m 450 87 l 429 130 l 407 130 l 429 87 l 450 87 m 494 87 l 472 130 l 450 130 l 472 87 l 494 87 m 515 87 l 515 130 l 494 130 l 515 87 m 581 87 q 564 92 571 87 q 559 109 559 99 q 564 123 559 117 q 581 130 571 130 l 559 130 l 559 87 l 581 87 m 602 87 l 602 130 l 581 130 q 595 123 589 130 q 602 109 602 117 q 595 92 602 99 q 581 87 589 87 l 602 87 m 146 438 q 159 442 153 438 q 163 456 163 448 q 159 468 163 463 q 146 472 153 472 q 133 468 138 472 q 129 456 129 463 q 133 442 129 448 q 146 438 138 438 m 212 608 l 212 629 q 195 623 202 629 q 190 608 190 616 l 212 608 m 38 0 l 38 87 l 81 87 l 81 174 l 515 174 l 515 217 l 168 217 l 168 304 l 81 304 l 81 391 l 38 391 l 38 521 l 81 521 l 125 564 l 168 564 l 168 608 q 180 637 168 625 q 212 651 193 651 l 689 651 l 689 564 l 732 564 l 732 521 l 689 521 l 689 477 l 212 477 l 212 391 l 559 391 l 559 304 l 646 304 l 646 260 l 689 260 l 689 130 l 646 130 l 646 65 l 624 43 l 559 43 l 559 0 l 38 0 z "},"t":{"ha":559,"x_min":23,"x_max":544,"o":"m 349 87 l 327 130 l 327 87 l 349 87 m 392 87 l 370 130 l 349 130 l 370 87 l 392 87 m 435 87 l 414 130 l 392 130 l 414 87 l 435 87 m 479 87 l 457 130 l 435 130 l 457 87 l 479 87 m 500 87 l 500 130 l 479 130 l 500 87 m 175 568 q 187 572 182 568 q 191 586 191 578 q 187 598 191 593 q 175 602 182 602 q 161 598 167 602 q 157 586 157 593 q 161 572 157 578 q 175 568 167 568 m 197 868 l 197 890 q 180 883 187 890 q 175 868 175 876 l 197 868 m 240 0 l 240 43 l 197 43 l 197 130 l 110 130 l 110 477 l 23 477 l 23 608 l 66 608 l 66 651 l 110 651 l 110 868 l 153 868 q 165 898 153 886 q 197 911 178 911 l 240 911 l 240 868 l 283 868 l 283 608 l 414 608 l 414 477 l 283 477 l 283 174 l 544 174 l 544 0 l 240 0 z "},"u":{"ha":777,"x_min":42,"x_max":736,"o":"m 151 91 q 163 95 157 91 q 167 109 167 100 q 163 121 167 115 q 151 125 157 125 q 137 121 142 125 q 133 109 133 115 q 137 95 133 100 q 151 91 142 91 m 411 91 q 423 95 418 91 q 427 109 427 100 q 423 121 427 115 q 411 125 418 125 q 397 121 403 125 q 393 109 393 115 q 397 95 393 100 q 411 91 403 91 m 237 87 l 216 130 l 216 87 l 237 87 m 281 87 l 259 130 l 237 130 l 259 87 l 281 87 m 324 87 l 302 130 l 281 130 l 302 87 l 324 87 m 346 87 l 346 130 l 324 130 l 346 87 m 606 43 l 606 130 l 563 130 l 606 109 l 563 87 l 606 65 l 563 43 l 606 43 m 172 174 l 172 564 l 129 564 l 129 174 l 172 174 m 606 217 l 606 564 l 563 564 l 563 217 l 606 217 m 85 608 l 85 629 q 71 623 77 629 q 64 608 64 616 l 85 608 m 172 0 l 172 43 l 107 43 q 91 49 98 43 q 85 65 85 56 l 85 130 l 42 130 l 42 608 q 56 637 42 625 q 85 651 68 651 l 129 651 l 129 608 l 216 608 l 216 174 l 433 174 l 433 260 l 519 260 l 519 608 l 606 608 l 606 651 l 650 651 l 650 694 l 693 694 l 693 651 l 736 651 l 736 608 l 693 608 l 693 0 l 519 0 l 519 130 l 476 130 l 476 0 l 172 0 z "},"v":{"ha":757,"x_min":34,"x_max":728,"o":"m 403 91 q 415 95 410 91 q 419 109 419 100 q 415 121 419 115 q 403 125 410 125 q 389 121 395 125 q 385 109 385 115 q 389 95 385 100 q 403 91 395 91 m 273 87 l 251 130 l 251 87 l 273 87 m 316 87 l 294 130 l 273 130 l 294 87 l 316 87 m 338 87 l 338 130 l 316 130 l 338 87 m 273 178 q 285 182 279 178 q 289 195 289 187 q 285 208 289 202 q 273 212 279 212 q 259 208 264 212 q 255 195 255 202 q 259 182 255 187 q 273 178 264 178 m 164 304 l 164 564 l 121 564 l 121 304 l 164 304 m 598 304 l 598 564 l 555 564 l 598 543 l 555 521 l 598 499 l 555 477 l 598 456 l 555 434 l 598 412 l 555 391 l 598 369 l 555 347 l 598 326 l 555 304 l 598 304 m 77 608 l 77 629 q 62 623 69 629 q 56 608 56 616 l 77 608 m 294 0 l 294 43 l 229 43 q 213 49 220 43 q 208 65 208 56 l 208 130 l 164 130 l 164 174 l 77 174 l 77 260 l 34 260 l 34 608 q 47 637 34 625 q 77 651 60 651 l 121 651 l 121 608 l 208 608 l 208 260 l 338 260 l 338 174 l 425 174 l 425 260 l 511 260 l 511 608 l 598 608 l 598 651 l 642 651 l 642 694 l 685 694 l 728 651 l 728 608 l 685 608 l 685 217 l 642 217 l 642 195 l 620 174 l 555 174 l 555 130 l 468 130 l 468 0 l 294 0 z "},"w":{"ha":780,"x_min":45,"x_max":739,"o":"m 175 43 l 175 130 l 132 130 l 132 43 l 175 43 m 609 43 l 609 130 l 566 130 l 609 109 l 566 87 l 609 65 l 566 43 l 609 43 m 414 308 q 426 312 420 308 q 430 326 430 317 q 426 338 430 332 q 414 342 420 342 q 400 338 406 342 q 396 326 396 332 q 400 312 396 317 q 414 308 406 308 m 175 217 l 175 564 l 132 564 l 132 217 l 175 217 m 609 217 l 609 564 l 566 564 l 609 543 l 566 521 l 609 499 l 566 477 l 609 456 l 566 434 l 609 412 l 566 391 l 609 369 l 566 347 l 609 326 l 566 304 l 609 282 l 566 260 l 609 239 l 566 217 l 609 217 m 88 608 l 88 629 q 73 623 80 629 q 66 608 66 616 l 88 608 m 45 0 l 45 608 q 58 637 45 625 q 88 651 71 651 l 132 651 l 132 608 l 218 608 l 218 304 l 305 304 l 305 391 l 479 391 l 479 260 l 522 260 l 522 608 l 609 608 l 609 651 l 652 651 l 652 694 l 696 694 l 739 651 l 739 608 l 696 608 l 696 0 l 522 0 l 522 130 l 435 130 l 435 174 l 349 174 l 349 130 l 262 130 l 218 87 l 218 0 l 45 0 z "},"x":{"ha":736,"x_min":46,"x_max":697,"o":"m 589 91 q 601 95 595 91 q 605 109 605 100 q 601 121 605 115 q 589 125 595 125 q 575 121 581 125 q 571 109 571 115 q 575 95 571 100 q 589 91 581 91 m 589 87 q 572 92 579 87 q 567 109 567 99 q 572 123 567 117 q 589 130 579 130 l 567 130 l 567 87 l 589 87 m 610 87 l 610 130 l 589 130 q 604 123 597 130 q 610 109 610 117 q 604 92 610 99 q 589 87 597 87 l 610 87 m 90 608 l 90 629 q 73 623 80 629 q 68 608 68 616 l 90 608 m 46 0 l 46 87 l 90 87 l 90 174 l 176 174 l 176 260 l 263 260 l 263 347 l 176 347 l 176 477 l 90 477 l 90 564 l 46 564 l 46 608 q 58 637 46 625 q 90 651 71 651 l 176 651 l 176 608 l 220 608 l 220 564 l 263 564 l 263 521 l 350 521 l 350 434 l 437 434 l 437 521 l 524 521 l 524 608 l 610 608 l 610 651 l 697 651 l 697 477 l 567 477 l 567 347 l 524 347 l 524 260 l 567 260 l 567 174 l 697 174 l 697 0 l 524 0 l 524 130 l 437 130 l 437 174 l 350 174 l 350 130 l 307 130 l 263 87 l 263 43 l 220 43 l 220 0 l 46 0 z "},"y":{"ha":766,"x_min":35,"x_max":730,"o":"m 578 -168 q 590 -164 585 -168 q 594 -152 594 -159 q 590 -138 594 -144 q 578 -134 585 -134 q 564 -138 570 -134 q 560 -152 560 -144 q 564 -164 560 -159 q 578 -168 570 -168 m 513 -174 l 513 -87 l 209 -87 l 209 -174 l 513 -174 m 578 -38 q 590 -34 585 -38 q 594 -22 594 -28 q 590 -8 594 -14 q 578 -4 585 -4 q 564 -8 570 -4 q 560 -22 560 -14 q 564 -34 560 -28 q 578 -38 570 -38 m 578 -43 q 562 -37 568 -43 q 556 -22 556 -30 q 562 -5 556 -12 q 578 0 568 0 l 556 0 l 556 -43 l 578 -43 m 600 -43 l 600 0 l 578 0 q 593 -5 586 0 q 600 -22 600 -12 q 593 -37 600 -30 q 578 -43 586 -43 l 600 -43 m 144 91 q 156 95 151 91 q 160 109 160 100 q 156 121 160 115 q 144 125 151 125 q 130 121 136 125 q 126 109 126 115 q 130 95 126 100 q 144 91 136 91 m 144 87 q 127 92 134 87 q 122 109 122 99 q 127 123 122 117 q 144 130 134 130 l 122 130 l 122 87 l 144 87 m 165 87 l 165 130 l 144 130 q 159 123 152 130 q 165 109 165 117 q 159 92 165 99 q 144 87 152 87 l 165 87 m 165 174 l 165 564 l 122 564 l 165 543 l 122 521 l 165 499 l 122 477 l 165 456 l 122 434 l 165 412 l 122 391 l 165 369 l 122 347 l 165 326 l 122 304 l 165 282 l 122 260 l 165 239 l 122 217 l 165 195 l 122 174 l 165 174 m 600 87 l 600 564 l 556 564 l 556 130 l 209 130 l 209 87 l 600 87 m 79 608 l 79 629 q 64 623 71 629 q 57 608 57 616 l 79 608 m 165 -260 l 165 -43 l 513 -43 l 513 0 l 187 0 q 171 5 178 0 q 165 22 165 12 l 165 43 l 79 43 l 79 130 l 35 130 l 35 608 q 49 637 35 625 q 79 651 61 651 l 122 651 l 122 608 l 209 608 l 209 174 l 513 174 l 513 608 l 600 608 l 600 651 l 643 651 l 643 694 l 686 694 l 730 651 l 730 608 l 686 608 l 686 -130 l 643 -130 l 643 -195 l 621 -217 l 556 -217 l 556 -260 l 165 -260 z "},"z":{"ha":745,"x_min":46,"x_max":697,"o":"m 220 87 l 220 130 l 133 130 l 133 87 l 220 87 m 328 87 l 307 130 l 307 87 l 328 87 m 372 87 l 350 130 l 328 130 l 350 87 l 372 87 m 415 87 l 393 130 l 372 130 l 393 87 l 415 87 m 458 87 l 437 130 l 415 130 l 437 87 l 458 87 m 502 87 l 480 130 l 458 130 l 480 87 l 502 87 m 545 87 l 524 130 l 502 130 l 524 87 l 545 87 m 589 87 l 567 130 l 545 130 l 567 87 l 589 87 m 632 87 l 610 130 l 589 130 l 610 87 l 632 87 m 654 87 l 654 130 l 632 130 l 654 87 m 90 608 l 90 629 q 73 623 80 629 q 68 608 68 616 l 90 608 m 46 0 l 46 87 l 90 87 l 90 174 l 176 174 l 176 260 l 263 260 l 263 304 l 307 304 l 307 391 l 393 391 l 393 434 l 480 434 q 467 464 480 452 q 437 477 454 477 l 90 477 l 90 521 l 46 521 l 46 608 q 58 637 46 625 q 90 651 71 651 l 654 651 l 697 608 l 697 477 l 567 477 l 567 347 l 524 347 l 524 304 l 480 304 l 480 217 l 393 217 l 393 174 l 697 174 l 697 0 l 46 0 z "},"{":{"ha":479,"x_min":9,"x_max":444,"o":"m 335 91 q 347 95 342 91 q 351 109 351 100 q 347 121 351 115 q 335 125 342 125 q 321 121 327 125 q 317 109 317 115 q 321 95 317 100 q 335 91 327 91 m 335 87 q 319 92 326 87 q 313 109 313 99 q 319 123 313 117 q 335 130 326 130 l 313 130 l 313 87 l 335 87 m 357 87 l 357 130 l 335 130 q 350 123 343 130 q 357 109 357 117 q 350 92 357 99 q 335 87 343 87 l 357 87 m 227 174 l 227 304 l 183 304 l 183 174 l 227 174 m 227 564 l 227 694 l 183 694 l 183 564 l 227 564 m 335 742 q 347 746 342 742 q 351 760 351 751 q 347 772 351 766 q 335 776 342 776 q 321 772 327 776 q 317 760 317 766 q 321 746 317 751 q 335 742 327 742 m 313 825 l 313 846 q 297 840 304 846 q 292 825 292 833 l 313 825 m 227 0 l 227 130 l 140 130 l 140 304 l 96 304 l 96 347 l 9 347 l 9 477 l 53 521 l 96 521 l 96 564 l 140 564 l 140 738 l 227 738 l 227 825 l 270 825 q 282 854 270 842 q 313 868 294 868 l 357 868 l 357 911 l 400 911 l 400 868 l 444 868 l 444 825 l 400 825 l 400 694 l 270 694 l 270 477 l 183 477 l 183 391 l 270 391 l 270 174 l 400 174 l 400 22 l 378 0 l 227 0 z "},"|":{"ha":239,"x_min":46,"x_max":220,"o":"m 111 -38 q 123 -34 118 -38 q 127 -22 127 -28 q 123 -8 127 -14 q 111 -4 118 -4 q 98 -8 103 -4 q 94 -22 94 -14 q 98 -34 94 -28 q 111 -38 103 -38 m 111 47 q 123 52 118 47 q 127 65 127 57 q 123 77 127 72 q 111 81 118 81 q 98 77 103 81 q 94 65 94 72 q 98 52 94 57 q 111 47 103 47 m 111 134 q 123 138 118 134 q 127 152 127 144 q 123 164 127 159 q 111 168 118 168 q 98 164 103 168 q 94 152 94 159 q 98 138 94 144 q 111 134 103 134 m 111 221 q 123 225 118 221 q 127 239 127 231 q 123 251 127 245 q 111 255 118 255 q 98 251 103 255 q 94 239 94 245 q 98 225 94 231 q 111 221 103 221 m 111 351 q 123 355 118 351 q 127 369 127 361 q 123 381 127 376 q 111 385 118 385 q 98 381 103 385 q 94 369 94 376 q 98 355 94 361 q 111 351 103 351 m 111 438 q 123 442 118 438 q 127 456 127 448 q 123 468 127 463 q 111 472 118 472 q 98 468 103 472 q 94 456 94 463 q 98 442 94 448 q 111 438 103 438 m 111 568 q 123 572 118 568 q 127 586 127 578 q 123 598 127 593 q 111 602 118 602 q 98 598 103 602 q 94 586 94 593 q 98 572 94 578 q 111 568 103 568 m 111 785 q 123 789 118 785 q 127 803 127 795 q 123 815 127 810 q 111 819 118 819 q 98 815 103 819 q 94 803 94 810 q 98 789 94 795 q 111 785 103 785 m 133 911 l 133 933 q 117 926 123 933 q 111 911 111 920 l 133 911 m 90 -130 l 90 -87 l 46 -87 l 46 911 l 90 911 q 102 941 90 929 q 133 955 114 955 l 220 955 l 220 911 l 176 911 l 176 -109 l 155 -130 l 90 -130 z "},"}":{"ha":480,"x_min":33,"x_max":467,"o":"m 141 91 q 153 95 148 91 q 157 109 157 100 q 153 121 157 115 q 141 125 148 125 q 127 121 133 125 q 123 109 123 115 q 127 95 123 100 q 141 91 133 91 m 141 87 q 125 92 132 87 q 119 109 119 99 q 125 123 119 117 q 141 130 132 130 l 119 130 l 119 87 l 141 87 m 163 87 l 163 130 l 141 130 q 156 123 149 130 q 163 109 163 117 q 156 92 163 99 q 141 87 149 87 l 163 87 m 163 825 l 163 846 q 146 840 153 846 q 141 825 141 833 l 163 825 m 76 0 l 76 174 l 206 174 l 206 391 l 293 391 l 293 477 l 206 477 l 206 694 l 76 694 l 76 738 l 33 738 l 33 781 l 76 781 l 76 825 l 119 825 q 132 854 119 842 q 163 868 144 868 l 206 868 l 206 825 l 293 825 l 293 738 l 336 738 l 336 586 l 358 564 l 423 564 l 423 521 l 467 521 l 467 347 l 423 347 l 423 304 l 336 304 l 336 152 l 315 130 l 293 130 l 293 43 l 250 43 l 250 0 l 76 0 z "},"~":{"ha":671,"x_min":28,"x_max":636,"o":"m 94 568 q 106 572 100 568 q 110 586 110 578 q 106 598 110 593 q 94 602 100 602 q 80 598 85 602 q 76 586 76 593 q 80 572 76 578 q 94 568 85 568 m 376 651 l 376 738 l 332 738 l 332 651 l 376 651 m 28 521 l 28 694 l 72 694 l 72 738 l 115 738 l 115 781 l 419 781 l 419 738 l 463 738 l 463 781 l 549 781 l 549 825 l 636 825 l 636 651 l 549 651 l 549 608 l 506 608 l 506 543 l 484 521 l 245 521 l 245 651 l 159 651 l 159 521 l 28 521 z "},"":{"ha":518,"x_min":47,"x_max":481,"o":"m 113 477 l 91 521 l 91 477 l 113 477 m 156 477 l 134 521 l 113 521 l 134 477 l 156 477 m 178 477 l 178 521 l 156 521 l 178 477 m 395 477 l 395 521 l 308 521 l 308 477 l 395 477 m 395 564 l 395 651 q 381 681 395 669 q 351 694 369 694 l 351 564 l 395 564 m 91 694 l 91 716 q 75 709 81 716 q 69 694 69 703 l 91 694 m 47 434 l 47 694 q 60 724 47 712 q 91 738 72 738 l 221 738 l 221 434 l 47 434 m 264 434 l 264 738 l 438 738 l 438 586 l 460 564 l 481 564 l 481 499 l 460 477 l 438 477 l 438 434 l 264 434 z "},"":{"ha":245,"x_min":47,"x_max":221,"o":"m 113 477 l 91 521 l 91 477 l 113 477 m 134 477 l 134 521 l 113 521 l 134 477 m 91 651 l 91 673 q 75 666 81 673 q 69 651 69 659 l 91 651 m 47 434 l 47 651 q 60 681 47 669 q 91 694 72 694 l 178 694 l 178 564 l 221 564 l 221 499 l 199 477 l 178 477 l 178 434 l 47 434 z "},"":{"ha":518,"x_min":47,"x_max":481,"o":"m 113 477 l 91 521 l 91 477 l 113 477 m 156 477 l 134 521 l 113 521 l 134 477 l 156 477 m 178 477 l 178 521 l 156 521 l 178 477 m 395 477 l 395 521 l 308 521 l 308 477 l 395 477 m 395 564 l 395 694 l 351 694 l 351 564 l 395 564 m 91 694 l 91 716 q 75 709 81 716 q 69 694 69 703 l 91 694 m 47 434 l 47 694 q 60 724 47 712 q 91 738 72 738 l 221 738 l 221 434 l 47 434 m 264 434 l 264 738 l 438 738 l 438 564 l 481 564 l 481 499 l 460 477 l 438 477 l 438 434 l 264 434 z "},"":{"ha":515,"x_min":47,"x_max":481,"o":"m 178 477 l 178 521 l 91 521 l 91 477 l 178 477 m 330 477 l 308 521 l 308 477 l 330 477 m 373 477 l 351 521 l 330 521 l 351 477 l 373 477 m 395 477 l 395 521 l 373 521 l 395 477 m 395 564 l 395 651 q 381 681 395 669 q 351 694 369 694 l 351 564 l 395 564 m 308 694 l 308 716 q 292 709 298 716 q 286 694 286 703 l 308 694 m 47 434 l 47 738 l 221 738 l 221 434 l 47 434 m 264 434 l 264 694 q 277 724 264 712 q 308 738 289 738 l 438 738 l 438 564 l 481 564 l 481 521 l 438 521 l 438 434 l 264 434 z "}}}
